<svg height="23" viewBox="0 0 21 23" width="21" xmlns="http://www.w3.org/2000/svg"><path d="m3.10541 19.2064c1.85456-3.104 3.66911-6.1266 5.47035-9.1628.56035-.94875 1.13407-1.88402 1.68104-2.83283.1868-.3253.387-.48796.7872-.4744.8806.0271 1.7612.01355 2.7885.01355-2.495 4.28328-4.92324 8.47158-7.40488 12.74108.88059.5151 1.77452.9624 2.58838 1.5453.80057.5828 1.481.5828 2.2815-.0136.6004-.4608 1.2942-.7861 2.0147-1.2064-.6938-1.1249-1.2675-2.2907-2.068-3.2666-1.0007-1.2063-1.0541-2.2771-.0534-3.4699.3469-.4201.5871-.9488.9206-1.5181 1.3876 2.1958 2.7218 4.3374 4.0961 6.5197.2802-.1626.507-.2846.8005-.4609-.7338-1.2063-1.4543-2.399-2.1748-3.5784-.627-1.03-1.2542-2.0737-1.9079-3.1038-.1868-.2983-.2135-.5422-.0134-.854.4804-.75903.9206-1.5452 1.4277-2.42624 1.4676 2.31777 2.8952 4.55434 4.3762 6.89924.04-.2305.0801-.366.0801-.5015 0-2.345-.0133-4.70344.0133-7.04835 0-.4744-.1734-.74549-.5603-.97591-2.5218-1.45032-5.0568-2.95486-7.6185-4.40518-.2669-.1491-.76051-.1491-1.02731 0-2.56173 1.46388-5.09675 2.95485-7.61843 4.4594-.24016.13554-.52035.46085-.52035.70483-.04002 2.43979-.02668 4.86601-.02668 7.46841.18678-.2304.29353-.3388.37358-.4473 1.16077-1.8298 2.37492-3.6461 3.48232-5.51658.62709-1.0708 1.49433-1.55875 2.68179-1.57231.49366-.01355.97398 0 1.62777 0-2.49502 4.06629-4.9233 7.99709-7.36493 11.96859-.6938-.4067-1.347566-.7456-1.961309-1.1521-.146764-.0949-.2668443-.3661-.2668443-.5558-.01334227-3.3886-.01334227-6.7772 0-10.16581 0-.82681.3869243-1.46387 1.1074033-1.88406 2.62842-1.51809 5.24349-3.06329 7.85855-4.594939.77391-.46085 1.53434-.447296 2.32154.013554 2.5484 1.504535 5.1235 2.995525 7.6852 4.472945.8805.51508 1.2808 1.24701 1.2808 2.27715-.0134 2.91426-.0134 5.82836 0 8.74256 0 1.0437-.4003 1.7892-1.3209 2.3043-2.575 1.4638-5.1234 2.982-7.6718 4.4865-.6537.3795-1.30746.515-1.96125.1491-2.05471-1.1386-4.08273-2.3449-6.20414-3.5784z" fill="#181818"/></svg>