<svg fill="none" height="45" viewBox="0 0 47 45" width="47" xmlns="http://www.w3.org/2000/svg" xmlns:xlink="http://www.w3.org/1999/xlink"><filter id="a" color-interpolation-filters="sRGB" filterUnits="userSpaceOnUse" height="33.9897" width="44.5659" x="15.2998" y="7.56506"><feFlood flood-opacity="0" result="BackgroundImageFix"/><feBlend in="SourceGraphic" in2="BackgroundImageFix" mode="normal" result="shape"/><feGaussianBlur result="effect1_foregroundBlur_911_6106" stdDeviation="7"/></filter><filter id="b" color-interpolation-filters="sRGB" filterUnits="userSpaceOnUse" height="41.5012" width="37.9263" x="-2.83447" y="11.9893"><feFlood flood-opacity="0" result="BackgroundImageFix"/><feBlend in="SourceGraphic" in2="BackgroundImageFix" mode="normal" result="shape"/><feGaussianBlur result="effect1_foregroundBlur_911_6106" stdDeviation="7"/></filter><filter id="c" color-interpolation-filters="sRGB" filterUnits="userSpaceOnUse" height="42.9808" width="39.4336" x=".703125" y="-9.69922"><feFlood flood-opacity="0" result="BackgroundImageFix"/><feBlend in="SourceGraphic" in2="BackgroundImageFix" mode="normal" result="shape"/><feGaussianBlur result="effect1_foregroundBlur_911_6106" stdDeviation="7"/></filter><linearGradient id="d" gradientUnits="userSpaceOnUse" x1="11.6282" x2="42.5286" y1="34.1666" y2="34.1666"><stop offset="0" stop-color="#ef2d23"/><stop offset="1" stop-color="#fa3227"/></linearGradient><linearGradient id="e" gradientUnits="userSpaceOnUse" x1="19.9701" x2="5.11212" y1="8.72611" y2="33.8992"><stop offset="0" stop-color="#ff4a34"/><stop offset="1" stop-color="#f32f24"/></linearGradient><linearGradient id="f" gradientUnits="userSpaceOnUse" x1="22.9907" x2="36.6698" y1="3.37668" y2="26.9036"><stop offset="0" stop-color="#fe4833"/><stop offset="1" stop-color="#ea3125"/></linearGradient><linearGradient id="g" gradientUnits="userSpaceOnUse" x1="25.3696" x2="25.3696" y1="14.7563" y2="41.6338"><stop offset="0" stop-color="#305adc"/><stop offset="1" stop-color="#2d86f7"/></linearGradient><linearGradient id="h" gradientUnits="userSpaceOnUse" x1="29.0734" x2="36.1556" y1="33.996" y2="5.50127"><stop offset="0" stop-color="#f77728"/><stop offset="1" stop-color="#ffbc17"/></linearGradient><linearGradient id="i" gradientUnits="userSpaceOnUse" x1="1.75906" x2="33.1479" y1="18.3842" y2="29.9942"><stop offset="0" stop-color="#ffb519"/><stop offset="1" stop-color="#ff7e29"/></linearGradient><clipPath id="j"><path d="m0 0h47v45h-47z"/></clipPath><g clip-path="url(#j)"><g fill="#0f2b41"><path d="m44.3848 30.9866c-.8224.7067-1.8093 1.2484-2.9373 1.5547-.0469 1.0364-.5874 1.9787-1.4099 2.5676-.0235.0235-.0469.0235-.0704.0471-.4935.3298-1.1045.5182-1.7859.5182h-25.1668l-.0705.1178c-.6579 1.1543 0 2.5676 1.222 2.8739h24.4852c1.081 0 2.0444-.2827 2.8903-.7538.0235 0 .047-.0236.0705-.0236 2.3264-1.3427 3.5718-4.193 2.7728-6.9019z"/><path d="m46.9463 25.1446c0-.0707 0-.1413 0-.212s0-.1413-.0235-.212c0-.1178-.0235-.212-.047-.3298 0-.0707-.0235-.1413-.0235-.212-.0234-.0707-.0234-.1413-.0469-.212s-.0235-.1649-.047-.2356c-.0235-.0942-.047-.1884-.0705-.2826-.0235-.0707-.047-.1649-.0705-.2356s-.047-.1178-.0705-.1884c-.0235-.0943-.0705-.1649-.094-.2592-.0235-.0706-.0705-.1649-.094-.2355-.047-.0942-.0705-.1885-.1175-.2591-.0235-.0471-.047-.0943-.0705-.1414l-9.7283-16.93679c-1.0574-1.83738-2.9373-2.75606-4.7937-2.70895l11.7257 20.37604c1.0339 1.8138.7049 3.8632-.4465 5.2765-.1645.1885-.329.3534-.5169.5183 0 0 0 0-.0235 0-.188.1649-.376.3062-.5875.424-.0235.0235-.047.0235-.0705.0471-.0705.0471-.141.0942-.2115.1178-.047.0235-.094.0471-.1175.0706-.0705.0236-.1175.0471-.188.0943-.047.0235-.0939.0471-.1409.0706-.235.0942-.4465.1649-.705.212-.329.0707-.6579.1178-1.0104.1178h-2.2794-.1175-.0705-3.2662-3.4543-13.7465l-1.6449 2.8503-.094.1649h23.9448.0705.8695c.6579 0 1.2924-.0942 1.9033-.2356 1.1279-.2826 2.1149-.8244 2.9373-1.5547.517-.4475.9635-.9658 1.3394-1.5311.0235-.0236.047-.0471.047-.0707.047-.0707.0705-.1178.1175-.1884.047-.0943.1175-.1885.1645-.2827.0235-.0471.0705-.1178.094-.1649.0235-.0707.0705-.1178.094-.1885.0235-.0471.047-.1177.0705-.1648.047-.1178.094-.212.141-.3298.0235-.0471.047-.0943.0705-.1649.0235-.0707.047-.1414.0705-.212.0235-.0471.0235-.0943.047-.1649.047-.1178.0705-.2356.094-.3769.0235-.0471.0235-.0942.047-.1649s.0235-.1413.0469-.2356c0-.0471.0235-.1178.0235-.1649.0235-.1177.047-.2591.047-.3769 0-.0471.0235-.1177.0235-.1649 0-.0706.0235-.1413.0235-.2355 0-.0707 0-.1178 0-.1885 0-.1177 0-.2355 0-.3533-.0235-.0471-.0235-.1178-.0235-.1649z"/><path d="m5.21275 32.6591c0-.0236 0-.0471 0-.0707-.047-.6125.09399-1.2485.42297-1.8609l12.59508-21.86007-.0235-.04711c-.7519-1.29558-2.6083-1.29558-3.3602 0l-12.00769 20.84708c-.07049.1178-.11749.2121-.16449.3298-.0235.0471-.04699.0707-.04699.1178-.0235.0707-.0705.1413-.094.212-.0235.0471-.04699.0942-.07049.1414-.0235.0471-.047.1177-.0705.1648-.0235.0472-.04699.1178-.07049.1649 0 .0236-.0235.0707-.0235.0943-.047.1649-.09399.3062-.11749.4711v.0471c-.0235.0942-.0235.1649-.047.2591v.0471c-.047.3063-.0705.5889-.0705.8952v.0706c.0235 2.6854 1.85638 5.1588 4.58218 5.7948-.21148-1.06-.16448-2.1907.1175-3.2978-.86944-.5654-1.4569-1.4841-1.55089-2.5205z"/><path d="m14.2131 41.6104c-.7754 0-1.5039-.1884-2.1148-.5182-1.0574-.5418-1.8564-1.4605-2.25585-2.5676-.23499-.6596-.32898-1.3898-.23499-2.12.0235-.2827.094-.5654.18799-.8481.09399-.3062.23495-.6124.39945-.9187l1.1279-1.9787.047-.0942.047-.0707 1.6449-2.8502 1.7154-2.9917 6.885-11.9429-1.7154-2.921-.047-.0706-11.98412 20.8-.047.0707-.42297.7302c-.32897.5654-.56396 1.1778-.72845 1.7667-.30547 1.1071-.32897 2.2378-.11749 3.2979.58746 3.1094 3.14878 5.7241 6.62653 6.0068h.1645.2115.282 19.0806c2.1149-.0236 3.8068-1.1778 4.7232-2.8032z"/></g><path d="m39.6148 32.7533h-.8695-.0704-23.9919l-1.6684 2.9209h25.2608c.6814 0 1.2454-.2355 1.7624-.5653.0235-.0236.047-.0236.0705-.0471.8459-.5889 1.3629-1.5312 1.4099-2.5677-.5875.1649-1.222.2592-1.9034.2592z" fill="url(#d)"/><path d="m18.2077 8.82031-12.61861 21.90719c-.35247.6124-.46996 1.2484-.42297 1.8609v.0707c.094 1.0129.65796 1.9551 1.5509 2.4969.16448-.5889.39947-1.2014.72845-1.7667l.42297-.7302.04699-.0707 11.98417-20.8236z" fill="url(#e)"/><path d="m40.649 24.1789-12.1956-21.20047c-.5405-.91869-1.269-1.64893-2.0914-2.143609-.0235-.02355-.047-.02355-.0705-.04711-2.3263-1.342694-5.4516-.965797-7.355 1.107139 1.034.35334 1.9974.91869 2.7963 1.74315.9165-.49468 2.0444-.51824 2.9843-.07067l.0705.02356c.517.28267.9869.68312 1.3394 1.27203l12.6186 21.90718h.094c1.3629.0235 2.2559-1.3663 1.8094-2.5912z" fill="#0f2b41"/><path d="m26.0689 4.95494c-.3054-.54179-.7284-.94225-1.1984-1.20136l-.0235-.02356c-.0235-.02356-.0705-.02356-.094-.04711-.0235 0-.047-.02356-.0705-.02356-.9399-.44756-2.0678-.44756-2.9843.04711.4465.44757.8695.9658 1.1985 1.57826l.3289.5889.094.1649.0235.02355 11.9842 20.77643h3.3603z" fill="url(#f)"/><path d="m23.495 6.01715-.047-.07066-.4229-.73024c-.3525-.58891-.752-1.10714-1.1984-1.57826-.8225-.80091-1.7859-1.38981-2.7964-1.74315-.6344-.21201-1.2924-.32979-1.9503-.3769-.1645 0-.3055-.02356-.47-.02356h-.0235c-2.4203.02356-4.8406 1.22493-6.274 3.58053l-8.90592 15.45279-.681454 1.2014c-1.057426 1.8373-.892938 3.9103.070495 5.5121l11.725679-20.35247c1.0339-1.81382 2.9843-2.54406 4.7702-2.23783.2115.04711.4229.09422.6344.16489.0235 0 .047.02356.0705.02356h.0235c.047.02355.0705.02356.1175.04711.4465.16489.8694.40045 1.2454.70668.188.14134.3525.28268.517.47113.235.25911.4465.54179.6344.84801l1.128 1.95516.0705.11778.047.07068 1.6213 2.8267v-.0235l.2585.424 1.5509 2.6854 6.8145 11.8487h3.2428.0705.1175z" fill="#0f2b41"/><g filter="url(#a)"><path d="m40.1875 26.3422h-10.0913l.3437.7125h14.5589l-3.0305-5.2393c.4894 1.5089.8185 4.5268-1.7808 4.5268z" fill="#050505" fill-opacity=".5"/><path d="m40.1875 26.3422h-10.0913l.3437.7125h14.5589l-3.0305-5.2393c.4894 1.5089.8185 4.5268-1.7808 4.5268z" stroke="#7381b0"/></g><g filter="url(#b)"><path d="m15.1115 35.1695 5.1414-8.5837-.7953-.0707-7.4176 12.384 6.1046.0915c-1.5628-.3524-4.3574-1.61-3.0331-3.8211z" fill="#050505" fill-opacity=".5"/><path d="m15.1115 35.1695 5.1414-8.5837-.7953-.0707-7.4176 12.384 6.1046.0915c-1.5628-.3524-4.3574-1.61-3.0331-3.8211z" stroke="#7381b0"/></g><g filter="url(#c)"><path d="m19.9862 9.75073 5.1099 8.60207.4476-.6538-7.3723-12.41036-3.0357 5.23626c1.0684-1.18127 3.5342-2.98991 4.8505-.77417z" fill="#050505" fill-opacity=".5"/><path d="m19.9862 9.75073 5.1099 8.60207.4476-.6538-7.3723-12.41036-3.0357 5.23626c1.0684-1.18127 3.5342-2.98991 4.8505-.77417z" stroke="#7381b0"/></g><path d="m41.1423 38.124c-.6345.2827-1.3159.4475-2.0444.4947h-24.3913c-.1644 0-.3054-.0236-.4699-.0472-1.2219-.2826-1.8799-1.696-1.2219-2.8738l.0705-.1178 1.6683-2.8738.047-.0942.047-.0707 1.6449-2.8503 1.7154-2.9916 5.1461-8.9513-1.7388-2.9917-6.8851 11.943-1.6918 2.9916-1.6449 2.8503-.047.0707-.047.0942-1.1279 1.9787c-.1645.3062-.30551.6125-.39951.9187-.32897 1.0129-.28197 2.0494.0705 2.968.63441 1.7196 2.25581 3.0623 4.34721 3.0623h5.2636 18.2112c1.7859-.1177 3.1018-1.4133 3.4543-2.9916.0235-.1649.0705-.3298.0705-.4947-.047-.0235-.047-.0235-.047-.0235z" fill="url(#g)"/><path d="m43.2899 22.9246-7.3785-12.8145-4.2062-7.3259c-1.0574-1.813822-3.2428-2.332051-4.9111-1.53114.0234.02355.0704.04711.0939.07066.047.02356.0705.07067.1175.09423.141.11778.282.23556.3995.3769.0235.02355.047.04711.0705.07066.3525.35334.658.7538.9164 1.20136l4.9817 8.62153 7.2375 12.5554c.4465 1.2249-.4465 2.5912-1.8329 2.5912h-.094-3.3602-.1175-.0705-3.2663-3.4543-10.3157l-1.7154 2.9916h13.7465 3.4543 3.2662.0705.1175 2.2794c.3525 0 .6814-.0471 1.0104-.1178 1.0339-.2356 1.9034-.8009 2.5378-1.5547 1.1514-1.3663 1.4804-3.4392.423-5.2295z" fill="url(#h)"/><path d="m25.1634 14.8507-1.7154-2.9916-1.6448-2.8267-.0705-.07068v.02355l-.0235-.02355v-.02356l-.0705-.11778-1.128-1.95515c-.1879-.30623-.3994-.5889-.6344-.84802-.7285-.77735-1.6449-1.24847-2.6083-1.38981-1.7859-.28267-3.7128.47112-4.7467 2.26138l-2.60832 4.49922-8.976373 15.5941c-.023498.0471-.046997.0942-.070495.1178-.9399345 1.7903-.305479 3.8632 1.198418 4.8997v-.0236c.09399-.7773.32898-1.5547.77544-2.3085l8.97633-15.5941 3.0078-5.25302c.752-1.29558 2.6084-1.29558 3.3603 0l.0235.04711 1.6919 2.92091.0705.1178.1175.212 1.5979 2.7325 1.7153 2.9917 5.1697 8.9748h3.4777z" fill="url(#i)"/></g></svg>