<svg width="20" height="19" viewBox="0 0 20 19" fill="none" xmlns="http://www.w3.org/2000/svg">
<g clip-path="url(#clip0_4170_414)">
<path d="M9.73088 0C10.3362 0.624889 10.9415 1.24978 11.5468 1.86622C12.7659 3.09067 13.9765 4.31511 15.204 5.53111C15.4226 5.75067 15.4814 5.88578 15.2208 6.12222C14.6575 6.64578 14.1195 7.20311 13.5814 7.76045C13.3964 7.95467 13.2955 7.93778 13.119 7.752C12.0597 6.67111 10.9751 5.60711 9.91584 4.51778C9.72247 4.32356 9.62158 4.32356 9.43663 4.51778C8.39413 5.59867 7.32641 6.65422 6.27551 7.73511C6.07373 7.94622 5.95603 7.95467 5.75426 7.73511C5.24983 7.19467 4.72017 6.66267 4.18211 6.156C3.92989 5.91956 3.91308 5.79289 4.1737 5.53956C5.90559 3.81689 7.62907 2.07733 9.34415 0.346222C9.45344 0.236444 9.54592 0.118222 9.64681 0C9.67203 0 9.70566 0 9.73088 0Z" fill="#4B3600"/>
<path d="M9.64684 19C9.54595 18.8817 9.45347 18.7635 9.35258 18.6537C7.62069 16.9142 5.88881 15.1662 4.14851 13.4435C3.92152 13.224 3.91311 13.1057 4.14851 12.8862C4.67817 12.388 5.19941 11.8729 5.69544 11.3324C5.93084 11.0791 6.06536 11.0369 6.33439 11.3155C7.35166 12.3795 8.41097 13.4013 9.43665 14.4569C9.64684 14.6764 9.75613 14.6511 9.9495 14.4484C11.0004 13.376 12.0681 12.3204 13.119 11.248C13.3124 11.0537 13.4217 11.0453 13.6066 11.248C14.1279 11.7969 14.6659 12.3373 15.2124 12.8609C15.4478 13.0889 15.431 13.2409 15.204 13.4689C13.4637 15.2 11.7318 16.948 10.0083 18.6875C9.90746 18.7889 9.82339 18.8986 9.73931 19C9.70569 19 9.67206 19 9.64684 19Z" fill="#4B3600"/>
<path d="M0.230713 9.45781C0.852847 8.84981 1.48339 8.25025 2.0803 7.62536C2.3157 7.38047 2.45022 7.40581 2.66881 7.63381C3.19846 8.19959 3.74493 8.74003 4.29981 9.28047C4.46795 9.44936 4.46795 9.5507 4.29981 9.71959C3.71971 10.2854 3.13961 10.8596 2.57633 11.4507C2.39978 11.6365 2.29889 11.5858 2.13915 11.4254C1.50861 10.792 0.869662 10.1671 0.230713 9.54225C0.230713 9.51692 0.230713 9.48314 0.230713 9.45781Z" fill="#4B3600"/>
<path d="M19.147 9.54223C18.5164 10.1587 17.8859 10.7751 17.2638 11.4C17.0872 11.5773 16.9779 11.6365 16.7677 11.4253C16.2213 10.8427 15.6496 10.2769 15.0779 9.71957C14.9097 9.55068 14.9097 9.44934 15.0779 9.28046C15.6496 8.72312 16.2213 8.15734 16.7677 7.57468C16.9695 7.35512 17.0872 7.41423 17.2638 7.60001C17.8859 8.2249 18.5164 8.84134 19.147 9.45779C19.147 9.48312 19.147 9.5169 19.147 9.54223Z" fill="#4B3600"/>
<path d="M9.69719 11.6787C9.00779 10.9862 8.35203 10.3191 7.67945 9.66047C7.54494 9.52536 7.56175 9.44936 7.68786 9.32269C8.30999 8.71469 8.92372 8.09825 9.52904 7.47336C9.66356 7.32981 9.73922 7.36358 9.85692 7.48181C10.4622 8.10669 11.076 8.72314 11.6981 9.33114C11.8326 9.46625 11.8242 9.53381 11.6981 9.66047C11.0255 10.3276 10.3698 11.0031 9.69719 11.6787Z" fill="#4B3600"/>
</g>
<defs>
<clipPath id="clip0_4170_414">
<rect width="18.9163" height="19" fill="white" transform="translate(0.230713)"/>
</clipPath>
</defs>
</svg>
