<svg fill="none" height="30" viewBox="0 0 26 30" width="26" xmlns="http://www.w3.org/2000/svg"><g fill="#000"><path d="m2.86932 15 .01582 5.8024 4.92686 2.9012v3.397l-7.81024227-4.5839v-9.2135zm0-5.80237v3.38117l-2.86932-1.6985v-3.38118l2.86932-1.69851 2.88338 1.69851zm7.00023-1.69851 2.86935-1.69851 2.8834 1.69851-2.8834 1.69851z"/><path d="m4.94268 19.5997v-3.397l2.86933 1.6985v3.3812zm4.92687 5.3206 2.86935 1.6985 2.8834-1.6985v3.3812l-2.8834 1.6985-2.86935-1.6985zm9.86775-17.42118 2.8694-1.69851 2.8833 1.69851v3.38118l-2.8833 1.6985v-3.38117zm2.8694 13.30328.0158-5.8024 2.8693-1.6985v9.2134l-7.8102 4.5839v-3.397z"/><path d="m20.5491 19.5997-2.8693 1.6827v-3.3812l2.8693-1.6985z"/><path d="m20.5491 10.4003.0158 3.397-4.9409 2.9012v5.8164l-2.8693 1.6827-2.86933-1.6827v-5.8164l-4.94093-2.9012v-3.397l2.88162-1.69851 4.91104 2.91521 4.9409-2.91521 2.8834 1.69851zm-15.60642-5.80061 7.79622-4.59969 7.8102 4.59969-2.8693 1.69852-4.9409-2.91525-4.92689 2.91525z"/></g></svg>