<svg width="24" height="23" viewBox="0 0 24 23" fill="none" xmlns="http://www.w3.org/2000/svg">
<g clip-path="url(#clip0_3450_4)">
<path d="M21.3576 13.8479C21.3576 13.7628 21.3272 13.6959 21.3089 13.6595L21.2297 13.4467H19.56V15.0576C19.56 15.7993 19.56 16.5409 19.56 17.2826C19.554 19.5075 17.8661 21.1853 15.6358 21.1853C12.3758 21.1853 9.0488 21.1853 5.74005 21.1853C3.51593 21.1853 1.83413 19.5136 1.82195 17.3008C1.80976 13.8783 1.80976 10.4984 1.82195 7.26432C1.82804 5.20353 3.52812 3.50748 5.61209 3.47708C6.36768 3.46493 7.13545 3.471 7.87276 3.471C8.214 3.471 8.55523 3.471 8.89647 3.471H9.59722V1.68377H9.29254C8.89647 1.68377 8.50649 1.68377 8.1165 1.68377C7.17202 1.68377 6.28237 1.67769 5.36835 1.68985C4.64932 1.69593 3.93029 1.8783 3.24173 2.23088C1.10901 3.31903 0.0243739 5.07587 0.0121869 7.45885C0 9.62298 0 11.8297 0 13.9573C0 15.0272 0 16.0971 0 17.1671C0 18.7841 0.584973 20.2674 1.65133 21.3312C2.72378 22.4011 4.2045 22.9908 5.82536 22.9908C7.36091 22.9908 9.37785 22.9908 11.4192 22.9908C11.8701 22.9908 12.3332 22.9908 12.7841 22.9968C13.1985 23.0029 13.6189 23.0029 14.0394 23.0029C14.7279 23.0029 15.4165 22.9968 16.105 22.9664C17.4395 22.9057 18.7191 22.3403 19.7002 21.3677C20.6812 20.395 21.2662 19.1306 21.3393 17.7993C21.3881 16.8813 21.382 15.9452 21.3759 15.0455C21.3637 14.6503 21.3576 14.2491 21.3576 13.8479Z" fill="white" fill-opacity="0.5"/>
</g>
<path d="M23.5947 3.26737C23.5276 1.88135 22.833 0.853995 21.596 0.300803C20.3103 -0.276704 18.8905 -0.00922716 17.879 0.987733C16.8492 2.00901 15.8072 3.04852 14.8018 4.05156C14.3265 4.52573 13.8512 4.99989 13.3759 5.47406C12.8641 5.98469 12.3583 6.48925 11.8464 6.99989C10.3718 8.47102 8.84845 9.99077 7.34337 11.4862C6.7523 12.0759 6.41106 12.7507 6.30747 13.547C6.18561 14.4589 6.05155 15.3829 5.91749 16.2765L5.86874 16.6048C5.83218 16.8662 5.80781 17.2491 6.05764 17.4984C6.22826 17.6686 6.45372 17.7111 6.66699 17.7111C6.77058 17.7111 6.86198 17.699 6.94729 17.6868C7.27634 17.6382 7.60538 17.5956 7.93443 17.547C8.58034 17.4558 9.24453 17.3586 9.90262 17.2734C10.8166 17.1519 11.554 16.781 12.1572 16.1427C12.5838 15.6868 13.0408 15.2431 13.4795 14.8114C13.6684 14.6291 13.8573 14.4406 14.0401 14.2522C14.8079 13.4862 15.5756 12.7203 16.3434 11.9543C18.4091 9.89351 20.5479 7.75977 22.6502 5.65643C23.2656 5.04244 23.5764 4.26433 23.5947 3.27953V3.26737ZM19.0002 2.28865C19.4755 1.80232 19.9812 1.63819 20.5723 1.75977C21.267 1.90567 21.6874 2.3312 21.8397 3.02421C21.9677 3.61995 21.791 4.13667 21.3035 4.60475L19.0002 2.28865ZM19.9751 5.81448L11.4686 14.2886L9.2689 12.0759L17.7571 3.59564L19.9751 5.81448ZM10.0611 15.4862C9.59186 15.6139 9.09828 15.6686 8.58643 15.7294C8.30004 15.7658 8.01365 15.7962 7.71507 15.8449C7.74553 15.626 7.776 15.4133 7.80038 15.2066C7.8735 14.623 7.94662 14.0576 8.08067 13.5105L10.0611 15.4862Z" fill="white"/>
<defs>
<clipPath id="clip0_3450_4">
<rect width="22.5946" height="22" fill="white" transform="translate(0 1.00293)"/>
</clipPath>
</defs>
</svg>
