<svg fill="none" height="20" viewBox="0 0 17 20" width="17" xmlns="http://www.w3.org/2000/svg"><g fill="#fff"><path d="m9.52816 9.71742c.01605.14662.04816.29328.04816.43988v3.9505.5213h4.78418v4.8709c-4.78418 0-9.5603 0-14.3605 0 .00802709-6.5.00802709-12.99185.00802709-19.5h4.74401291v14.6128h2.44023c0-1.6047 0-3.2011 0-4.88724h2.34392z"/><path d="m9.54415 9.72547c.02408-.13032.06422-.26065.06422-.38283 0-2.15852-.00803-4.31704.00802-6.47556 0-.38283-.10435-.48872-.47359-.47243-.58598.03258-1.17196.00814-1.79807.00814 0-.80639 0-1.588343 0-2.39473336h4.63967v4.83020336h2.368l-.008-.00815c.016.02444.0401.04887.0401.07331v4.82205c-1.6295 0-3.243 0-4.8564 0 0-.00814.01605 0 .01605 0z"/><path d="m14.3524 4.83835c.0241-.13848.0642-.28509.0642-.42356.008-1.31955 0-2.63096 0-3.950504 0-.146617 0-.293233 0-.464286h2.368v4.8302c-.8188 0-1.6295 0-2.4322.00815z"/></g></svg>