<svg fill="none" height="30" viewBox="0 0 30 30" width="30" xmlns="http://www.w3.org/2000/svg" xmlns:xlink="http://www.w3.org/1999/xlink"><mask id="a" fill="#000" height="30" maskUnits="userSpaceOnUse" width="30" x="0" y="0"><path d="m0 0h30v30h-30z" fill="#fff"/><path d="m1.00569 13.2044c-.037998-.2435.12157-.3805.26594-.5174 1.70208-1.7196 3.41176-3.42404 5.12143-5.13604 1.01061-1.01198 2.02122-2.01635 3.03183-3.02833 1.04861-1.05764 2.11241-2.10006 3.14581-3.17291.3191-.33479.6383-.418487 1.0866-.29674 1.1626.30435 2.3327.57827 3.5029.8598.2812.06848.4483.19783.5167.50979.2964 1.27069.6231 2.53376.9574 3.79684.076.29674 0 .50979-.2127.71523-2.0592 2.04679-4.1108 4.10116-6.1624 6.15556-.1672.1674-.4864.3272-.4332.5327.0608.2054.418.175.6459.2358.6915.1826 1.3981.3044 2.082.5479.3572.1293.7523.1369.9194.5326.114.2815.1672.5859.2356.875.1748.7.3419 1.4.5243 2.1001.0912.3576.1368.3728.3951.1065 1.1854-1.187 2.3708-2.3816 3.5638-3.5762.9422-.9435 1.892-1.887 2.8342-2.8305.2356-.2359.4863-.312.8207-.2283 1.2461.3272 2.5075.624 3.7612.9283.2052.0457.3344.137.3876.3576.3191 1.2936.6383 2.5871.9802 3.873.0912.35-.0228.5859-.2584.8141-1.5045 1.499-3.009 3.0055-4.5135 4.5121-2.2416 2.2446-4.4908 4.4892-6.7323 6.7491-.3572.3576-.6915.4717-1.2006.3043-1.1018-.3728-2.234-.662-3.351-.9815-.2963-.0837-.4407-.2587-.5167-.5403-.3039-1.1109-.6231-2.2141-.9194-3.3326-.0608-.2207-.19-.3044-.3875-.3577-1.0942-.3119-2.18081-.6467-3.2826-.9435-.35714-.0989-.50911-.2891-.60029-.6391-.28875-1.0881-.60789-2.1685-.90423-3.2566-.06839-.2359-.24315-.3044-.44072-.3652-1.09419-.312-2.18838-.6316-3.28257-.9359-.25836-.0685-.41793-.2131-.49391-.4718-.34953-1.1565-.68387-2.3283-1.01821-3.4925-.03799-.1369-.09118-.2663-.06838-.4032zm11.39021-1.3772c-.0228-.0761-.0076-.1522-.1443-.175-.8739-.1522-1.7097-.4338-2.55316-.6925-.28875-.0913-.48631-.0608-.66867.1598-.34194.4109-.78266.7-1.13979 1.1033-.49391.5707-1.0638 1.0805-1.6033 1.6207-.28114.2815-.71426.525-.29634 1.0196.0152.0152.0076.0457.0152.0761.18236.7381.35713 1.4761.5395 2.2142.10638.4261.15197.4413.45591.1369 1.74767-1.7424 3.49535-3.4924 5.24305-5.2349.0683-.0761.1367-.1369.1519-.2282zm7.3782 9.4654c-.1519-.0228-.2355.0837-.3267.1674-1.0258 1.0196-2.044 2.0392-3.0698 3.0512-.1368.1369-.1596.2739-.114.4489.228.8978.4483 1.7881.6763 2.6859.0228.0913.0076.2131.1367.2511.1292.0381.2204-.0608.2888-.1445.4483-.5859 1.0106-1.0577 1.5197-1.5827 1.231-1.2555 2.4847-2.4957 3.7309-3.7284.19-.1902.2279-.2663-.076-.35-.6687-.175-1.3297-.388-1.9984-.5782-.2584-.0761-.5167-.1522-.7675-.2207zm-11.02548-11.0405c-.21276-.79891-.39513-1.58263-.63068-2.35874-.06839-.22065-.0304-.6011-.29635-.63153-.22795-.03044-.37992.29674-.55469.47175-1.65649 1.65112-3.31297 3.30982-4.96946 4.96102-.20516.2054-.23555.2967.09118.3728.81305.1826 1.6261.3576 2.42394.6087.39513.1294.63068.0305.89663-.2359.94223-.9663 1.90724-1.925 2.86466-2.8837.09118-.0989.18237-.1902.17477-.3044zm6.79308 13.871c.1824.0228.2812-.1141.38-.2206 1.003-.9968 1.9984-2.0012 3.009-2.9979.1292-.1294.1672-.2587.114-.4414-.2432-.8369-.4787-1.6739-.7143-2.5109-.0304-.1141.0076-.2815-.1672-.3043-.1291-.0229-.1899.1065-.2659.1826-1.7553 1.75-3.5105 3.5077-5.2734 5.2501-.2052.1978-.1748.2663.0836.3272.737.1826 1.4741.3652 2.2111.5478.2128.0533.418.1065.6231.1674zm8.6852-8.6589c-.0152-.0609-.0304-.1141-.0456-.1598-.2356-.8674-.4787-1.7272-.7219-2.5946-.0684-.2511-.1671-.3044-.3723-.0913-1.2386 1.2554-2.4923 2.4957-3.7309 3.7436-.0684.0684-.19.1293-.1596.2434.0304.137.1748.1142.2812.137.8434.213 1.6945.4109 2.5303.6391.2356.0609.4103.0305.5851-.1369.4863-.4794.927-.9968 1.4741-1.4229.114-.0913.1216-.2359.1596-.3576zm.6763.6696c-.114-.0076-.1824.0456-.2432.1141-.5243.525-1.0562 1.0577-1.5881 1.5827-.1368.1369-.1444.2739-.0988.4489.228.8978.4483 1.7881.6535 2.6859.0684.2968.1824.2892.3647.0913.3116-.3271.6383-.6467.965-.9663.9423-.9359 1.8769-1.8794 2.8191-2.8077.1976-.1978.2052-.2815-.0988-.35-.5015-.1217-.9954-.2815-1.4969-.4261-.4255-.1293-.8586-.2511-1.2765-.3728zm-10.2809-10.34049c-.2204-.04565-.2963.03044-.3875.10653-.5319.46414-.965 1.0348-1.5273 1.4609-.1292.09892-.1292.27392-.0912.4261.2355.93589.4711 1.86418.7067 2.79246.0531.2207.1291.2435.2887.0761 1.269-1.2707 2.5455-2.53377 3.8145-3.79685.1671-.16739.1064-.25109-.0912-.31196-.266-.07609-.5395-.14457-.8055-.22066-.661-.18261-1.3297-.37283-1.9072-.53262zm-2.8039 1.20981c.2128.05327.3648-.06087.5015-.19783.4332-.44131.8587-.89785 1.3146-1.31633.2128-.19023.2583-.38806.1824-.63915-.2432-.83698-.4939-1.67396-.7219-2.51093-.076-.27392-.1748-.25871-.3495-.07609-.6003.61632-1.2158 1.21742-1.8237 1.82613-.6307.63154-1.25376 1.27068-1.89203 1.89461-.18997.19023-.13678.22827.07598.35762.25835.15979.5319.0837.79025.15979.6231.19022 1.2766.33479 1.9224.50218zm.5395 11.29918c-.1519-.0152-.2355.0837-.3267.1674-.266.2511-.5167.525-.7979.7533-.1747.1446-.2127.2815-.1595.487.2355.9054.4787 1.8109.6838 2.7163.076.3196.1596.3196.3648.1142 1.041-1.0501 2.0896-2.0925 3.1306-3.1425.1672-.1674.114-.2511-.0912-.3044-.6915-.1978-1.3829-.3956-2.0744-.5935-.2432-.0684-.4863-.1293-.7295-.1978zm-2.0744.6392c.1748.0076.2964-.0685.4103-.1826.2964-.2892.5927-.5859.8967-.8751.114-.1065.0988-.213.0608-.3424-.2508-.8902-.5091-1.7728-.7523-2.6631-.076-.2739-.152-.2891-.3571-.0913-1.03343 1.0348-2.08203 2.062-3.13063 3.0968-.15197.1522-.18236.2739.08359.3348.45591.1065.91182.2131 1.36014.3348.47871.1218.94982.2587 1.4285.3881zm.8131 3.8196c-.0152-.0608-.0304-.1141-.038-.1598-.2204-.8826-.4407-1.7652-.6611-2.6479-.0532-.2054-.1672-.3195-.3799-.3728-.89665-.213-1.80088-.4185-2.68991-.6544-.34194-.0913-.27355.0685-.22036.2587.20516.7153.44831 1.4229.60788 2.1534.12158.5554.39513.8217.94982.9359.71427.1521 1.41337.388 2.11997.5858.1216.0305.2812.1294.3116-.0989zm2.6899-20.90919c-.0988.00761-.0532.13696-.0228.23587.2583.91307.5243 1.81853.7826 2.73159.0456.15218.1368.22827.2812.27392.889.24349 1.7856.49458 2.6747.74567.2279.06848.2963.00761.2279-.23587-.1823-.6848-.3951-1.36199-.5015-2.0544-.1064-.70763-.4103-1.12612-1.1626-1.13372-.0608 0-.1215-.03805-.1823-.05327-.6687-.15978-1.345-.32718-2.0972-.50979zm14.3308 14.19819c-.0151-.0457-.0303-.1065-.0455-.1674-.2128-.8826-.4332-1.7653-.6459-2.6555-.0456-.1826-.1672-.2663-.342-.312-.9194-.213-1.8464-.4337-2.7658-.6619-.1824-.0457-.2888-.0153-.2128.1978.3116.8674.5167 1.7729.7751 2.6555.0456.1522.0987.2815.2735.3348.9118.2511 1.8237.5098 2.7355.7609.1292.0456.2355.038.2279-.1522zm-16.1925-7.76868c-.0456.03043-.114.06087-.1596.11413-.5622.54784-1.1169 1.09568-1.6792 1.64355-.19.1902-.09882.2587.1139.3195.7295.1979 1.459.3957 2.1884.6088.2736.0837.3116.0228.2432-.2359-.1976-.76091-.3723-1.5218-.5623-2.28269-.0228-.06848-.0152-.15218-.1444-.16739zm2.9255 7.40348c-.038.0304-.0912.0608-.1368.0989-.5699.5554-1.1398 1.1185-1.7021 1.6739-.1444.1446-.1064.2207.0912.2892.7371.2511 1.5197.3652 2.234.7.1671.0761.2963-.0152.2431-.2359-.1975-.7989-.4027-1.5902-.6003-2.3892-.0228-.0608-.0304-.1293-.1291-.1369zm-8.93594 1.7957c-.18237-.7305-.38753-1.5446-.58509-2.3512-.0456-.1826-.14438-.1446-.24316-.0532-.59269.5706-1.17777 1.1489-1.76286 1.7272-.09879.0989-.11398.2054.05319.2511.77505.2206 1.5577.4413 2.34035.6619.12918.0381.23556.0153.19757-.2358zm17.05874 3.7816c-.1975-.8218-.3875-1.6435-.5851-2.4653-.038-.1674-.1519-.1522-.2507-.0457-.5623.5935-1.193 1.1109-1.7325 1.7196-.152.1751-.0836.2207.0912.2664.7598.2206 1.5273.4413 2.2872.6695.1443.0381.2203.0153.1899-.1445zm-6.7171 6.6045c-.0076-.0152-.0228-.0913-.038-.1674-.1368-.5631-.2735-1.1337-.4255-1.6892-.0532-.1978-.0076-.5098-.2128-.5706-.2127-.0685-.3343.2206-.4863.3652-.4559.4337-.9042.8826-1.3449 1.3391-.0684.0761-.2888.1979-.0304.2968.7598.2967 1.5653.3957 2.3403.6315.1368.0381.2356.0381.1976-.2054zm-14.30049-14.1754c-.07599.0153-.13678.0229-.09879.1598.24316.7761.47111 1.5598.69907 2.3359.06079.1979.12918.2588.29635.0837.56989-.5782 1.13978-1.1413 1.72487-1.7043.17477-.1674.05319-.2055-.07599-.2435-.28874-.0837-.58509-.1598-.88143-.2359-.5395-.1294-1.09419-.2587-1.66408-.3957zm9.80209.7229c-.1975-.0533-.2279.038-.1823.1978.2203.7685.4407 1.5294.6535 2.2979.0456.1598.1291.1826.2431.0685.5851-.5783 1.1626-1.1642 1.7401-1.7501.1064-.1065.1064-.2054-.0684-.2358-.8055-.1446-1.5957-.3729-2.386-.5783zm-.3951-6.67301c-.038-.15218-.1595-.13696-.2507-.15979-.7447-.19783-1.48935-.38045-2.23401-.57828-.24315-.06087-.29634.00761-.22795.24349.21276.71523.42552 1.43047.62308 2.1457.08358.29675.18236.27392.36473.0837.53185-.54023 1.07135-1.07285 1.61085-1.60547.0456-.04566.0836-.09131.114-.12935zm1.0942 16.35911c-.1975-.0457-.2279.0304-.1823.2054.2203.7381.4331 1.4838.6458 2.2218.0684.2283.1596.2131.3116.0609.5547-.5555 1.117-1.1033 1.6793-1.6435.1443-.137.1139-.1979-.0608-.2435-.7979-.1978-1.5957-.4033-2.3936-.6011zm6.5576-6.7491c-.1216.0609-.076.1598-.038.2663.2051.7.4255 1.4001.6079 2.1153.0911.3576.2051.3043.4103.0989.5091-.5174 1.0182-1.0348 1.5577-1.5218.2204-.1978.1596-.2663-.076-.3272-.7826-.1978-1.5653-.3956-2.3479-.5934-.0304-.0077-.0532-.0153-.114-.0381z" fill="#000"/></mask><path d="m1.00569 13.2044c-.037998-.2435.12157-.3805.26594-.5174 1.70208-1.7196 3.41176-3.42404 5.12143-5.13604 1.01061-1.01198 2.02122-2.01635 3.03183-3.02833 1.04861-1.05764 2.11241-2.10006 3.14581-3.17291.3191-.33479.6383-.418487 1.0866-.29674 1.1626.30435 2.3327.57827 3.5029.8598.2812.06848.4483.19783.5167.50979.2964 1.27069.6231 2.53376.9574 3.79684.076.29674 0 .50979-.2127.71523-2.0592 2.04679-4.1108 4.10116-6.1624 6.15556-.1672.1674-.4864.3272-.4332.5327.0608.2054.418.175.6459.2358.6915.1826 1.3981.3044 2.082.5479.3572.1293.7523.1369.9194.5326.114.2815.1672.5859.2356.875.1748.7.3419 1.4.5243 2.1001.0912.3576.1368.3728.3951.1065 1.1854-1.187 2.3708-2.3816 3.5638-3.5762.9422-.9435 1.892-1.887 2.8342-2.8305.2356-.2359.4863-.312.8207-.2283 1.2461.3272 2.5075.624 3.7612.9283.2052.0457.3344.137.3876.3576.3191 1.2936.6383 2.5871.9802 3.873.0912.35-.0228.5859-.2584.8141-1.5045 1.499-3.009 3.0055-4.5135 4.5121-2.2416 2.2446-4.4908 4.4892-6.7323 6.7491-.3572.3576-.6915.4717-1.2006.3043-1.1018-.3728-2.234-.662-3.351-.9815-.2963-.0837-.4407-.2587-.5167-.5403-.3039-1.1109-.6231-2.2141-.9194-3.3326-.0608-.2207-.19-.3044-.3875-.3577-1.0942-.3119-2.18081-.6467-3.2826-.9435-.35714-.0989-.50911-.2891-.60029-.6391-.28875-1.0881-.60789-2.1685-.90423-3.2566-.06839-.2359-.24315-.3044-.44072-.3652-1.09419-.312-2.18838-.6316-3.28257-.9359-.25836-.0685-.41793-.2131-.49391-.4718-.34953-1.1565-.68387-2.3283-1.01821-3.4925-.03799-.1369-.09118-.2663-.06838-.4032zm11.39021-1.3772c-.0228-.0761-.0076-.1522-.1443-.175-.8739-.1522-1.7097-.4338-2.55316-.6925-.28875-.0913-.48631-.0608-.66867.1598-.34194.4109-.78266.7-1.13979 1.1033-.49391.5707-1.0638 1.0805-1.6033 1.6207-.28114.2815-.71426.525-.29634 1.0196.0152.0152.0076.0457.0152.0761.18236.7381.35713 1.4761.5395 2.2142.10638.4261.15197.4413.45591.1369 1.74767-1.7424 3.49535-3.4924 5.24305-5.2349.0683-.0761.1367-.1369.1519-.2282zm7.3782 9.4654c-.1519-.0228-.2355.0837-.3267.1674-1.0258 1.0196-2.044 2.0392-3.0698 3.0512-.1368.1369-.1596.2739-.114.4489.228.8978.4483 1.7881.6763 2.6859.0228.0913.0076.2131.1367.2511.1292.0381.2204-.0608.2888-.1445.4483-.5859 1.0106-1.0577 1.5197-1.5827 1.231-1.2555 2.4847-2.4957 3.7309-3.7284.19-.1902.2279-.2663-.076-.35-.6687-.175-1.3297-.388-1.9984-.5782-.2584-.0761-.5167-.1522-.7675-.2207zm-11.02548-11.0405c-.21276-.79891-.39513-1.58263-.63068-2.35874-.06839-.22065-.0304-.6011-.29635-.63153-.22795-.03044-.37992.29674-.55469.47175-1.65649 1.65112-3.31297 3.30982-4.96946 4.96102-.20516.2054-.23555.2967.09118.3728.81305.1826 1.6261.3576 2.42394.6087.39513.1294.63068.0305.89663-.2359.94223-.9663 1.90724-1.925 2.86466-2.8837.09118-.0989.18237-.1902.17477-.3044zm6.79308 13.871c.1824.0228.2812-.1141.38-.2206 1.003-.9968 1.9984-2.0012 3.009-2.9979.1292-.1294.1672-.2587.114-.4414-.2432-.8369-.4787-1.6739-.7143-2.5109-.0304-.1141.0076-.2815-.1672-.3043-.1291-.0229-.1899.1065-.2659.1826-1.7553 1.75-3.5105 3.5077-5.2734 5.2501-.2052.1978-.1748.2663.0836.3272.737.1826 1.4741.3652 2.2111.5478.2128.0533.418.1065.6231.1674zm8.6852-8.6589c-.0152-.0609-.0304-.1141-.0456-.1598-.2356-.8674-.4787-1.7272-.7219-2.5946-.0684-.2511-.1671-.3044-.3723-.0913-1.2386 1.2554-2.4923 2.4957-3.7309 3.7436-.0684.0684-.19.1293-.1596.2434.0304.137.1748.1142.2812.137.8434.213 1.6945.4109 2.5303.6391.2356.0609.4103.0305.5851-.1369.4863-.4794.927-.9968 1.4741-1.4229.114-.0913.1216-.2359.1596-.3576zm.6763.6696c-.114-.0076-.1824.0456-.2432.1141-.5243.525-1.0562 1.0577-1.5881 1.5827-.1368.1369-.1444.2739-.0988.4489.228.8978.4483 1.7881.6535 2.6859.0684.2968.1824.2892.3647.0913.3116-.3271.6383-.6467.965-.9663.9423-.9359 1.8769-1.8794 2.8191-2.8077.1976-.1978.2052-.2815-.0988-.35-.5015-.1217-.9954-.2815-1.4969-.4261-.4255-.1293-.8586-.2511-1.2765-.3728zm-10.2809-10.34049c-.2204-.04565-.2963.03044-.3875.10653-.5319.46414-.965 1.0348-1.5273 1.4609-.1292.09892-.1292.27392-.0912.4261.2355.93589.4711 1.86418.7067 2.79246.0531.2207.1291.2435.2887.0761 1.269-1.2707 2.5455-2.53377 3.8145-3.79685.1671-.16739.1064-.25109-.0912-.31196-.266-.07609-.5395-.14457-.8055-.22066-.661-.18261-1.3297-.37283-1.9072-.53262zm-2.8039 1.20981c.2128.05327.3648-.06087.5015-.19783.4332-.44131.8587-.89785 1.3146-1.31633.2128-.19023.2583-.38806.1824-.63915-.2432-.83698-.4939-1.67396-.7219-2.51093-.076-.27392-.1748-.25871-.3495-.07609-.6003.61632-1.2158 1.21742-1.8237 1.82613-.6307.63154-1.25376 1.27068-1.89203 1.89461-.18997.19023-.13678.22827.07598.35762.25835.15979.5319.0837.79025.15979.6231.19022 1.2766.33479 1.9224.50218zm.5395 11.29918c-.1519-.0152-.2355.0837-.3267.1674-.266.2511-.5167.525-.7979.7533-.1747.1446-.2127.2815-.1595.487.2355.9054.4787 1.8109.6838 2.7163.076.3196.1596.3196.3648.1142 1.041-1.0501 2.0896-2.0925 3.1306-3.1425.1672-.1674.114-.2511-.0912-.3044-.6915-.1978-1.3829-.3956-2.0744-.5935-.2432-.0684-.4863-.1293-.7295-.1978zm-2.0744.6392c.1748.0076.2964-.0685.4103-.1826.2964-.2892.5927-.5859.8967-.8751.114-.1065.0988-.213.0608-.3424-.2508-.8902-.5091-1.7728-.7523-2.6631-.076-.2739-.152-.2891-.3571-.0913-1.03343 1.0348-2.08203 2.062-3.13063 3.0968-.15197.1522-.18236.2739.08359.3348.45591.1065.91182.2131 1.36014.3348.47871.1218.94982.2587 1.4285.3881zm.8131 3.8196c-.0152-.0608-.0304-.1141-.038-.1598-.2204-.8826-.4407-1.7652-.6611-2.6479-.0532-.2054-.1672-.3195-.3799-.3728-.89665-.213-1.80088-.4185-2.68991-.6544-.34194-.0913-.27355.0685-.22036.2587.20516.7153.44831 1.4229.60788 2.1534.12158.5554.39513.8217.94982.9359.71427.1521 1.41337.388 2.11997.5858.1216.0305.2812.1294.3116-.0989zm2.6899-20.90919c-.0988.00761-.0532.13696-.0228.23587.2583.91307.5243 1.81853.7826 2.73159.0456.15218.1368.22827.2812.27392.889.24349 1.7856.49458 2.6747.74567.2279.06848.2963.00761.2279-.23587-.1823-.6848-.3951-1.36199-.5015-2.0544-.1064-.70763-.4103-1.12612-1.1626-1.13372-.0608 0-.1215-.03805-.1823-.05327-.6687-.15978-1.345-.32718-2.0972-.50979zm14.3308 14.19819c-.0151-.0457-.0303-.1065-.0455-.1674-.2128-.8826-.4332-1.7653-.6459-2.6555-.0456-.1826-.1672-.2663-.342-.312-.9194-.213-1.8464-.4337-2.7658-.6619-.1824-.0457-.2888-.0153-.2128.1978.3116.8674.5167 1.7729.7751 2.6555.0456.1522.0987.2815.2735.3348.9118.2511 1.8237.5098 2.7355.7609.1292.0456.2355.038.2279-.1522zm-16.1925-7.76868c-.0456.03043-.114.06087-.1596.11413-.5622.54784-1.1169 1.09568-1.6792 1.64355-.19.1902-.09882.2587.1139.3195.7295.1979 1.459.3957 2.1884.6088.2736.0837.3116.0228.2432-.2359-.1976-.76091-.3723-1.5218-.5623-2.28269-.0228-.06848-.0152-.15218-.1444-.16739zm2.9255 7.40348c-.038.0304-.0912.0608-.1368.0989-.5699.5554-1.1398 1.1185-1.7021 1.6739-.1444.1446-.1064.2207.0912.2892.7371.2511 1.5197.3652 2.234.7.1671.0761.2963-.0152.2431-.2359-.1975-.7989-.4027-1.5902-.6003-2.3892-.0228-.0608-.0304-.1293-.1291-.1369zm-8.93594 1.7957c-.18237-.7305-.38753-1.5446-.58509-2.3512-.0456-.1826-.14438-.1446-.24316-.0532-.59269.5706-1.17777 1.1489-1.76286 1.7272-.09879.0989-.11398.2054.05319.2511.77505.2206 1.5577.4413 2.34035.6619.12918.0381.23556.0153.19757-.2358zm17.05874 3.7816c-.1975-.8218-.3875-1.6435-.5851-2.4653-.038-.1674-.1519-.1522-.2507-.0457-.5623.5935-1.193 1.1109-1.7325 1.7196-.152.1751-.0836.2207.0912.2664.7598.2206 1.5273.4413 2.2872.6695.1443.0381.2203.0153.1899-.1445zm-6.7171 6.6045c-.0076-.0152-.0228-.0913-.038-.1674-.1368-.5631-.2735-1.1337-.4255-1.6892-.0532-.1978-.0076-.5098-.2128-.5706-.2127-.0685-.3343.2206-.4863.3652-.4559.4337-.9042.8826-1.3449 1.3391-.0684.0761-.2888.1979-.0304.2968.7598.2967 1.5653.3957 2.3403.6315.1368.0381.2356.0381.1976-.2054zm-14.30049-14.1754c-.07599.0153-.13678.0229-.09879.1598.24316.7761.47111 1.5598.69907 2.3359.06079.1979.12918.2588.29635.0837.56989-.5782 1.13978-1.1413 1.72487-1.7043.17477-.1674.05319-.2055-.07599-.2435-.28874-.0837-.58509-.1598-.88143-.2359-.5395-.1294-1.09419-.2587-1.66408-.3957zm9.80209.7229c-.1975-.0533-.2279.038-.1823.1978.2203.7685.4407 1.5294.6535 2.2979.0456.1598.1291.1826.2431.0685.5851-.5783 1.1626-1.1642 1.7401-1.7501.1064-.1065.1064-.2054-.0684-.2358-.8055-.1446-1.5957-.3729-2.386-.5783zm-.3951-6.67301c-.038-.15218-.1595-.13696-.2507-.15979-.7447-.19783-1.48935-.38045-2.23401-.57828-.24315-.06087-.29634.00761-.22795.24349.21276.71523.42552 1.43047.62308 2.1457.08358.29675.18236.27392.36473.0837.53185-.54023 1.07135-1.07285 1.61085-1.60547.0456-.04566.0836-.09131.114-.12935zm1.0942 16.35911c-.1975-.0457-.2279.0304-.1823.2054.2203.7381.4331 1.4838.6458 2.2218.0684.2283.1596.2131.3116.0609.5547-.5555 1.117-1.1033 1.6793-1.6435.1443-.137.1139-.1979-.0608-.2435-.7979-.1978-1.5957-.4033-2.3936-.6011zm6.5576-6.7491c-.1216.0609-.076.1598-.038.2663.2051.7.4255 1.4001.6079 2.1153.0911.3576.2051.3043.4103.0989.5091-.5174 1.0182-1.0348 1.5577-1.5218.2204-.1978.1596-.2663-.076-.3272-.7826-.1978-1.5653-.3956-2.3479-.5934-.0304-.0077-.0532-.0153-.114-.0381z" fill="#fff"/><path d="m1.00569 13.2044c-.037998-.2435.12157-.3805.26594-.5174 1.70208-1.7196 3.41176-3.42404 5.12143-5.13604 1.01061-1.01198 2.02122-2.01635 3.03183-3.02833 1.04861-1.05764 2.11241-2.10006 3.14581-3.17291.3191-.33479.6383-.418487 1.0866-.29674 1.1626.30435 2.3327.57827 3.5029.8598.2812.06848.4483.19783.5167.50979.2964 1.27069.6231 2.53376.9574 3.79684.076.29674 0 .50979-.2127.71523-2.0592 2.04679-4.1108 4.10116-6.1624 6.15556-.1672.1674-.4864.3272-.4332.5327.0608.2054.418.175.6459.2358.6915.1826 1.3981.3044 2.082.5479.3572.1293.7523.1369.9194.5326.114.2815.1672.5859.2356.875.1748.7.3419 1.4.5243 2.1001.0912.3576.1368.3728.3951.1065 1.1854-1.187 2.3708-2.3816 3.5638-3.5762.9422-.9435 1.892-1.887 2.8342-2.8305.2356-.2359.4863-.312.8207-.2283 1.2461.3272 2.5075.624 3.7612.9283.2052.0457.3344.137.3876.3576.3191 1.2936.6383 2.5871.9802 3.873.0912.35-.0228.5859-.2584.8141-1.5045 1.499-3.009 3.0055-4.5135 4.5121-2.2416 2.2446-4.4908 4.4892-6.7323 6.7491-.3572.3576-.6915.4717-1.2006.3043-1.1018-.3728-2.234-.662-3.351-.9815-.2963-.0837-.4407-.2587-.5167-.5403-.3039-1.1109-.6231-2.2141-.9194-3.3326-.0608-.2207-.19-.3044-.3875-.3577-1.0942-.3119-2.18081-.6467-3.2826-.9435-.35714-.0989-.50911-.2891-.60029-.6391-.28875-1.0881-.60789-2.1685-.90423-3.2566-.06839-.2359-.24315-.3044-.44072-.3652-1.09419-.312-2.18838-.6316-3.28257-.9359-.25836-.0685-.41793-.2131-.49391-.4718-.34953-1.1565-.68387-2.3283-1.01821-3.4925-.03799-.1369-.09118-.2663-.06838-.4032zm11.39021-1.3772c-.0228-.0761-.0076-.1522-.1443-.175-.8739-.1522-1.7097-.4338-2.55316-.6925-.28875-.0913-.48631-.0608-.66867.1598-.34194.4109-.78266.7-1.13979 1.1033-.49391.5707-1.0638 1.0805-1.6033 1.6207-.28114.2815-.71426.525-.29634 1.0196.0152.0152.0076.0457.0152.0761.18236.7381.35713 1.4761.5395 2.2142.10638.4261.15197.4413.45591.1369 1.74767-1.7424 3.49535-3.4924 5.24305-5.2349.0683-.0761.1367-.1369.1519-.2282zm7.3782 9.4654c-.1519-.0228-.2355.0837-.3267.1674-1.0258 1.0196-2.044 2.0392-3.0698 3.0512-.1368.1369-.1596.2739-.114.4489.228.8978.4483 1.7881.6763 2.6859.0228.0913.0076.2131.1367.2511.1292.0381.2204-.0608.2888-.1445.4483-.5859 1.0106-1.0577 1.5197-1.5827 1.231-1.2555 2.4847-2.4957 3.7309-3.7284.19-.1902.2279-.2663-.076-.35-.6687-.175-1.3297-.388-1.9984-.5782-.2584-.0761-.5167-.1522-.7675-.2207zm-11.02548-11.0405c-.21276-.79891-.39513-1.58263-.63068-2.35874-.06839-.22065-.0304-.6011-.29635-.63153-.22795-.03044-.37992.29674-.55469.47175-1.65649 1.65112-3.31297 3.30982-4.96946 4.96102-.20516.2054-.23555.2967.09118.3728.81305.1826 1.6261.3576 2.42394.6087.39513.1294.63068.0305.89663-.2359.94223-.9663 1.90724-1.925 2.86466-2.8837.09118-.0989.18237-.1902.17477-.3044zm6.79308 13.871c.1824.0228.2812-.1141.38-.2206 1.003-.9968 1.9984-2.0012 3.009-2.9979.1292-.1294.1672-.2587.114-.4414-.2432-.8369-.4787-1.6739-.7143-2.5109-.0304-.1141.0076-.2815-.1672-.3043-.1291-.0229-.1899.1065-.2659.1826-1.7553 1.75-3.5105 3.5077-5.2734 5.2501-.2052.1978-.1748.2663.0836.3272.737.1826 1.4741.3652 2.2111.5478.2128.0533.418.1065.6231.1674zm8.6852-8.6589c-.0152-.0609-.0304-.1141-.0456-.1598-.2356-.8674-.4787-1.7272-.7219-2.5946-.0684-.2511-.1671-.3044-.3723-.0913-1.2386 1.2554-2.4923 2.4957-3.7309 3.7436-.0684.0684-.19.1293-.1596.2434.0304.137.1748.1142.2812.137.8434.213 1.6945.4109 2.5303.6391.2356.0609.4103.0305.5851-.1369.4863-.4794.927-.9968 1.4741-1.4229.114-.0913.1216-.2359.1596-.3576zm.6763.6696c-.114-.0076-.1824.0456-.2432.1141-.5243.525-1.0562 1.0577-1.5881 1.5827-.1368.1369-.1444.2739-.0988.4489.228.8978.4483 1.7881.6535 2.6859.0684.2968.1824.2892.3647.0913.3116-.3271.6383-.6467.965-.9663.9423-.9359 1.8769-1.8794 2.8191-2.8077.1976-.1978.2052-.2815-.0988-.35-.5015-.1217-.9954-.2815-1.4969-.4261-.4255-.1293-.8586-.2511-1.2765-.3728zm-10.2809-10.34049c-.2204-.04565-.2963.03044-.3875.10653-.5319.46414-.965 1.0348-1.5273 1.4609-.1292.09892-.1292.27392-.0912.4261.2355.93589.4711 1.86418.7067 2.79246.0531.2207.1291.2435.2887.0761 1.269-1.2707 2.5455-2.53377 3.8145-3.79685.1671-.16739.1064-.25109-.0912-.31196-.266-.07609-.5395-.14457-.8055-.22066-.661-.18261-1.3297-.37283-1.9072-.53262zm-2.8039 1.20981c.2128.05327.3648-.06087.5015-.19783.4332-.44131.8587-.89785 1.3146-1.31633.2128-.19023.2583-.38806.1824-.63915-.2432-.83698-.4939-1.67396-.7219-2.51093-.076-.27392-.1748-.25871-.3495-.07609-.6003.61632-1.2158 1.21742-1.8237 1.82613-.6307.63154-1.25376 1.27068-1.89203 1.89461-.18997.19023-.13678.22827.07598.35762.25835.15979.5319.0837.79025.15979.6231.19022 1.2766.33479 1.9224.50218zm.5395 11.29918c-.1519-.0152-.2355.0837-.3267.1674-.266.2511-.5167.525-.7979.7533-.1747.1446-.2127.2815-.1595.487.2355.9054.4787 1.8109.6838 2.7163.076.3196.1596.3196.3648.1142 1.041-1.0501 2.0896-2.0925 3.1306-3.1425.1672-.1674.114-.2511-.0912-.3044-.6915-.1978-1.3829-.3956-2.0744-.5935-.2432-.0684-.4863-.1293-.7295-.1978zm-2.0744.6392c.1748.0076.2964-.0685.4103-.1826.2964-.2892.5927-.5859.8967-.8751.114-.1065.0988-.213.0608-.3424-.2508-.8902-.5091-1.7728-.7523-2.6631-.076-.2739-.152-.2891-.3571-.0913-1.03343 1.0348-2.08203 2.062-3.13063 3.0968-.15197.1522-.18236.2739.08359.3348.45591.1065.91182.2131 1.36014.3348.47871.1218.94982.2587 1.4285.3881zm.8131 3.8196c-.0152-.0608-.0304-.1141-.038-.1598-.2204-.8826-.4407-1.7652-.6611-2.6479-.0532-.2054-.1672-.3195-.3799-.3728-.89665-.213-1.80088-.4185-2.68991-.6544-.34194-.0913-.27355.0685-.22036.2587.20516.7153.44831 1.4229.60788 2.1534.12158.5554.39513.8217.94982.9359.71427.1521 1.41337.388 2.11997.5858.1216.0305.2812.1294.3116-.0989zm2.6899-20.90919c-.0988.00761-.0532.13696-.0228.23587.2583.91307.5243 1.81853.7826 2.73159.0456.15218.1368.22827.2812.27392.889.24349 1.7856.49458 2.6747.74567.2279.06848.2963.00761.2279-.23587-.1823-.6848-.3951-1.36199-.5015-2.0544-.1064-.70763-.4103-1.12612-1.1626-1.13372-.0608 0-.1215-.03805-.1823-.05327-.6687-.15978-1.345-.32718-2.0972-.50979zm14.3308 14.19819c-.0151-.0457-.0303-.1065-.0455-.1674-.2128-.8826-.4332-1.7653-.6459-2.6555-.0456-.1826-.1672-.2663-.342-.312-.9194-.213-1.8464-.4337-2.7658-.6619-.1824-.0457-.2888-.0153-.2128.1978.3116.8674.5167 1.7729.7751 2.6555.0456.1522.0987.2815.2735.3348.9118.2511 1.8237.5098 2.7355.7609.1292.0456.2355.038.2279-.1522zm-16.1925-7.76868c-.0456.03043-.114.06087-.1596.11413-.5622.54784-1.1169 1.09568-1.6792 1.64355-.19.1902-.09882.2587.1139.3195.7295.1979 1.459.3957 2.1884.6088.2736.0837.3116.0228.2432-.2359-.1976-.76091-.3723-1.5218-.5623-2.28269-.0228-.06848-.0152-.15218-.1444-.16739zm2.9255 7.40348c-.038.0304-.0912.0608-.1368.0989-.5699.5554-1.1398 1.1185-1.7021 1.6739-.1444.1446-.1064.2207.0912.2892.7371.2511 1.5197.3652 2.234.7.1671.0761.2963-.0152.2431-.2359-.1975-.7989-.4027-1.5902-.6003-2.3892-.0228-.0608-.0304-.1293-.1291-.1369zm-8.93594 1.7957c-.18237-.7305-.38753-1.5446-.58509-2.3512-.0456-.1826-.14438-.1446-.24316-.0532-.59269.5706-1.17777 1.1489-1.76286 1.7272-.09879.0989-.11398.2054.05319.2511.77505.2206 1.5577.4413 2.34035.6619.12918.0381.23556.0153.19757-.2358zm17.05874 3.7816c-.1975-.8218-.3875-1.6435-.5851-2.4653-.038-.1674-.1519-.1522-.2507-.0457-.5623.5935-1.193 1.1109-1.7325 1.7196-.152.1751-.0836.2207.0912.2664.7598.2206 1.5273.4413 2.2872.6695.1443.0381.2203.0153.1899-.1445zm-6.7171 6.6045c-.0076-.0152-.0228-.0913-.038-.1674-.1368-.5631-.2735-1.1337-.4255-1.6892-.0532-.1978-.0076-.5098-.2128-.5706-.2127-.0685-.3343.2206-.4863.3652-.4559.4337-.9042.8826-1.3449 1.3391-.0684.0761-.2888.1979-.0304.2968.7598.2967 1.5653.3957 2.3403.6315.1368.0381.2356.0381.1976-.2054zm-14.30049-14.1754c-.07599.0153-.13678.0229-.09879.1598.24316.7761.47111 1.5598.69907 2.3359.06079.1979.12918.2588.29635.0837.56989-.5782 1.13978-1.1413 1.72487-1.7043.17477-.1674.05319-.2055-.07599-.2435-.28874-.0837-.58509-.1598-.88143-.2359-.5395-.1294-1.09419-.2587-1.66408-.3957zm9.80209.7229c-.1975-.0533-.2279.038-.1823.1978.2203.7685.4407 1.5294.6535 2.2979.0456.1598.1291.1826.2431.0685.5851-.5783 1.1626-1.1642 1.7401-1.7501.1064-.1065.1064-.2054-.0684-.2358-.8055-.1446-1.5957-.3729-2.386-.5783zm-.3951-6.67301c-.038-.15218-.1595-.13696-.2507-.15979-.7447-.19783-1.48935-.38045-2.23401-.57828-.24315-.06087-.29634.00761-.22795.24349.21276.71523.42552 1.43047.62308 2.1457.08358.29675.18236.27392.36473.0837.53185-.54023 1.07135-1.07285 1.61085-1.60547.0456-.04566.0836-.09131.114-.12935zm1.0942 16.35911c-.1975-.0457-.2279.0304-.1823.2054.2203.7381.4331 1.4838.6458 2.2218.0684.2283.1596.2131.3116.0609.5547-.5555 1.117-1.1033 1.6793-1.6435.1443-.137.1139-.1979-.0608-.2435-.7979-.1978-1.5957-.4033-2.3936-.6011zm6.5576-6.7491c-.1216.0609-.076.1598-.038.2663.2051.7.4255 1.4001.6079 2.1153.0911.3576.2051.3043.4103.0989.5091-.5174 1.0182-1.0348 1.5577-1.5218.2204-.1978.1596-.2663-.076-.3272-.7826-.1978-1.5653-.3956-2.3479-.5934-.0304-.0077-.0532-.0153-.114-.0381z" mask="url(#a)" stroke="#000" stroke-width=".04"/></svg>