<svg height="26" viewBox="0 0 17 26" width="17" xmlns="http://www.w3.org/2000/svg"><g fill="#fff"><path d="m0 13.3032c2.68158-4.42254 5.35712-8.83909 8.06291-13.3032 2.70579 4.46411 5.38129 8.88066 8.06899 13.315-.6961.4161-1.3802.8203-2.0581 1.2186-1.925 1.1354-3.8559 2.2707-5.78086 3.406-.13318.0773-.23608.1368-.40557.0357-2.59079-1.5336-5.18157-3.0613-7.772358-4.5889-.0302667-.0238-.0605329-.0476-.115012-.0832z"/><path d="m8.06292 26c-2.67553-3.6795-5.32685-7.3292-8.0326466-11.0503.1513306.0713.2300226.1011.2966086.1427 2.499988 1.4741 4.993918 2.9424 7.487858 4.4225.1937.1129.32082.1129.51452 0 2.47574-1.4683 4.95764-2.9305 7.43944-4.3869.0847-.0475.1695-.0951.2905-.101-2.6634 3.6438-5.3147 7.2935-7.99628 10.973z"/></g></svg>