<svg width="17" height="26" viewBox="0 0 17 26" xmlns="http://www.w3.org/2000/svg">
  <path d="M0 13.3032C2.68158 8.88066 5.35712 4.46411 8.06291 0C10.7687 4.46411 13.4442 8.88066 16.1319 13.315C15.4358 13.7311 14.7517 14.1353 14.0738 14.5336C12.1488 15.669 10.2179 16.8043 8.29294 17.9396C8.15976 18.0169 8.05686 18.0764 7.88737 17.9753C5.29658 16.4417 2.7058 14.914 0.115012 13.3864C0.0847453 13.3626 0.0544791 13.3388 0 13.3032Z" fill="currentColor"/>
  <path d="M8.06292 26C5.38739 22.3205 2.73607 18.6708 0.0302734 14.9497C0.181604 15.021 0.260296 15.0508 0.326882 15.0924C2.82687 16.5665 5.3208 18.0348 7.81474 19.5149C8.00844 19.6278 8.13556 19.6278 8.32926 19.5149C10.805 18.0466 13.2869 16.5844 15.7687 15.128C15.8534 15.0805 15.9382 15.0329 16.0592 15.027C13.3958 18.6708 10.7445 22.3205 8.06292 26Z" fill="currentColor"/>
</svg>
