<svg width="12" height="16" viewBox="0 0 12 16" fill="none" xmlns="http://www.w3.org/2000/svg">
<path d="M4.23022 0C4.71175 0.38927 5.16254 0.69869 5.55186 1.068C6.95546 2.43543 7.46772 4.1622 7.59066 6.04866C7.64189 6.8272 7.74434 7.60574 7.89802 8.36432C7.94925 8.60387 8.25661 8.79351 8.44102 9.0131C8.65617 8.82346 8.94304 8.67374 9.08647 8.44417C9.43481 7.85527 9.43481 7.20649 9.31187 6.5577C9.27089 6.32813 9.19917 6.10855 9.1377 5.84903C9.20942 5.869 9.26064 5.869 9.28113 5.88896C10.5823 7.44604 11.4531 9.18278 11.2585 11.2389C11.0638 13.2551 10.2032 14.912 8.1644 15.7604C7.94925 15.8503 7.71361 15.9002 7.47797 15.9701C7.38576 16 7.28331 16 7.28331 16C7.48821 15.5309 7.82631 15.0618 7.88778 14.5627C8.01072 13.6644 7.60091 12.9058 6.81203 12.3968C6.40222 12.1273 5.95142 11.9177 5.51088 11.718C3.90237 10.9595 3.18521 9.30256 3.78968 7.65565C3.83066 7.55583 3.87164 7.44604 3.85115 7.32626C2.73441 8.62383 1.97627 10.0611 2.06847 11.8079C2.16068 13.5845 3.22619 14.8322 4.51709 15.9601C2.63196 15.6207 1.16689 14.7324 0.459967 12.9457C-0.349408 10.9095 -0.124012 8.99314 1.40253 7.31628C2.05823 6.59763 2.78564 5.93886 3.46183 5.23019C4.93714 3.69308 5.17278 2.10605 4.21998 0.209607C4.20973 0.189644 4.21998 0.149719 4.23022 0Z" fill="white"/>
</svg>
