<svg fill="none" height="20" viewBox="0 0 20 20" width="20" xmlns="http://www.w3.org/2000/svg" xmlns:xlink="http://www.w3.org/1999/xlink"><linearGradient id="a" gradientUnits="userSpaceOnUse" x1="10" x2="10" y1="0" y2="20"><stop offset="0" stop-color="#ff5c00"/><stop offset="1" stop-color="#fc4c00"/></linearGradient><circle cx="10" cy="10" fill="url(#a)" r="9.5" stroke="#fff"/><path d="m9.16973 3c.3616.29232.70011.52467.99247.802 1.054 1.02686 1.4387 2.32355 1.531 3.74016.0385.58464.1154 1.16927.2308 1.73891.0385.17989.2693.3223.4078.4872.1615-.14241.377-.25484.4847-.42723.2616-.44223.2616-.92942.1692-1.41662-.0307-.17239-.0846-.33729-.1308-.53217.0539.01499.0924.015.1077.02999.9771 1.16926 1.6311 2.47345 1.4849 4.01746-.1462 1.5141-.7924 2.7583-2.3234 3.3954-.1616.0675-.3386.1049-.5155.1574-.0693.0225-.1462.0225-.1462.0225.1539-.3523.4078-.7046.4539-1.0793.0923-.6746-.2154-1.2443-.8078-1.6265-.3077-.2024-.6463-.3598-.9771-.5097-1.20786-.5696-1.74641-1.81387-1.29249-3.05059.03077-.07496.06155-.15741.04616-.24735-.83859.97439-1.40792 2.05374-1.33867 3.36544.06924 1.3341.86937 2.271 1.83875 3.118-1.41561-.2548-2.51579-.9219-3.04664-2.2636-.60779-1.529-.43853-2.96812.70781-4.22733.49238-.53967 1.03862-1.03436 1.5464-1.56653 1.10787-1.15427 1.28482-2.34603.56932-3.77014-.00769-.01499 0-.04497.00769-.1574z" fill="#fff"/></svg>