<svg fill="none" height="17" viewBox="0 0 17 17" width="17" xmlns="http://www.w3.org/2000/svg"><g fill="#000"><path d="m13.8522 13.9623c-.3675-.1351-.7529-.2363-1.0935-.4136-1.0486-.5402-2.0793-.0253-2.0345 1.0973.0448 1.1902-.86042 2.1018-2.23172 2.0174-.4571-.0338-.93213 0-1.38026-.0844-.82458-.1604-1.36234-.8019-1.40715-1.5953-.00897-.1267 0-.2533-.00897-.3799-.04481-1.072-1.02175-1.5869-2.00765-1.0635-1.24582.6583-2.24069.3967-2.957705-.785-.143404-.2279-.286808-.4643-.421249-.6922-.591541-1.0045-.30473289-1.9667.743904-2.56602.11652-.06753.23304-.11817.34059-.19414.69909-.49801.69909-1.42651 0-1.91608-.17926-.12662-.3854-.21947-.564655-.33764-.681168-.43892-1.021752-1.24925-.717019-1.95828.268882-.5993.618429-1.19017 1.039674-1.70506.55569-.67527 1.52367-.7428 2.40202-.32075.30473.15193.66324.29543.99486.28699.70806-.01689 1.14723-.5571 1.1562-1.30834 0-.47269.12547-.89473.37643-1.316778.58258-.96226 3.70161-.970701 4.2125-.016882.1882.33764.2958.71748.4123 1.08887.0538.16882.0089.36296.0358.54022.1434.85253 1.0397 1.25769 1.8643.88629.3943-.17726.8156-.35451 1.2458-.40516.6901-.07597 1.2458.24479 1.6223.79344.2599.37984.5019.76812.717 1.16485.466.85252.1792 1.80634-.6722 2.32124-.1165.06752-.2331.12661-.3496.19414-.9052.53177-.9142 1.58688.009 2.09334.5826.32075 1.0307.70055 1.192 1.34205.2958 1.224-1.2189 3.1569-2.5185 3.2329zm-9.71561-1.8232c1.24582.0337 2.05246.4136 2.49164 1.283.19718.3883.24199.861.28681 1.2999.05377.5402.25992.7597.83353.7681h.94109c.54673-.0084.7708-.2279.79768-.7512.00897-.2617 0-.5403.07171-.7935.42124-1.5278 2.18695-2.2284 3.65675-1.4856.2331.1182.493.2533.735.2533.484.0084 1.3803-1.4519 1.1293-1.8402-.1255-.2025-.3764-.346-.6005-.4726-1.0128-.59935-1.4609-1.67134-1.1204-2.73489.2152-.66683.6902-1.12264 1.3355-1.46028.5019-.26166.5736-.54021.2958-1.00446-.1703-.29543-.3496-.59086-.5378-.87785-.233-.34608-.5288-.41361-.9232-.23635-.1344.05909-.2599.13506-.3943.20258-1.1204.54866-2.4917.23635-3.21764-.73435-.34059-.45581-.4571-.96226-.44814-1.51092.00896-.5993-.22407-.80188-.86939-.81032-.29577 0-.6005 0-.89627 0-.54673.00844-.7708.2279-.79769.75123-.00896.26167 0 .54022-.0717.79345-.42125 1.5278-2.18691 2.22839-3.6568 1.48559-.23303-.11817-.49295-.24478-.73494-.25323-.48399-.00844-1.38026 1.45184-1.12931 1.84012.12548.20258.3854.33763.60051.47269 1.01279.60774 1.46092 1.67129 1.12034 2.74328-.21511.66683-.69013 1.12261-1.33545 1.46031-.50191.2616-.57361.5402-.29577 1.0044.15237.2617.30473.5149.46606.7682.29577.4811.57362.5317 1.11138.2869.43918-.2194.90524-.3629 1.1562-.4473z"/><path d="m8.18978 5.07316c1.83832-.00931 3.30152 1.43495 3.30152 3.26125 0 1.80769-1.4444 3.24259-3.26401 3.26119-1.83834.0094-3.30151-1.4349-3.30151-3.26119 0-1.81698 1.43503-3.25193 3.264-3.26125zm.03751 5.23664c1.07862-.0187 2.00721-.96907 1.97901-2.01267-.0281-1.05291-.93791-1.94742-1.99777-1.95674-1.06924 0-2.00716.93178-1.99779 1.99402.00938 1.06223.95669 1.99399 2.01655 1.97539z"/></g></svg>