<svg fill="none" height="21" viewBox="0 0 21 21" width="21" xmlns="http://www.w3.org/2000/svg"><g stroke="#5c4302" stroke-miterlimit="10" stroke-width="1.5"><path d="m20.2214 6.17789h-19.2214v3.23956h19.2214z"/><path d="m18.4936 9.41745h-15.76582v10.58255h15.76582z"/><path d="m12.1225 9.41745h-3.02362v10.58255h3.02362z"/><path d="m15.2756 4.49332c-.7991.79909-3.9307 1.68457-4.2546 1.36062-.324-.32396.5615-3.45553 1.3606-4.25462.7991-.799093 2.0949-.799093 2.894 0 .7991.79909.7991 2.09491 0 2.894z"/><path d="m5.94575 4.49332c.79909.79909 3.93067 1.68457 4.25465 1.36062.3239-.32396-.56155-3.45553-1.36064-4.25462-.79909-.799093-2.09492-.799093-2.89401 0-.79909.79909-.79909 2.09491 0 2.894z"/></g></svg>