<svg fill="none" height="73" viewBox="0 0 73 73" width="73" xmlns="http://www.w3.org/2000/svg"><path d="m56.182 36.6377c-4.5274-3.3327-6.0886-9.347-3.8076-14.4719 5.2161-11.7182 7.2998-20.48791 4.733-21.953082-2.567-1.465178-9.1207 4.752022-16.6521 15.150582-3.2934 4.5476-9.2981 6.2449-14.4764 4.039-13.1517-5.6024-23.5082-7.3553-25.600176-3.7234-2.872584 4.9842 10.906976 18.2181 30.778476 29.5569.7362.4204 1.4706.8292 2.202 1.233.0411.0246.0674.0393.0674.0393s-4.8347-2.0899-9.9654-1.5536c-.4025.0426-.7525.3043-.9268.6673-6.6277 13.8013-9.5675 24.558-6.6984 26.1965 2.9467 1.6812 11.1403-6.752 20.0359-20.0103 1.1209-1.6698 3.3113-2.2698 5.1272-1.3949 15.7926 7.6054 28.9495 10.4752 31.3389 6.33 2.0936-3.632-4.6573-11.6414-16.1591-20.1071z" fill="#fff"/></svg>