<svg fill="none" height="23" viewBox="0 0 19 23" width="19" xmlns="http://www.w3.org/2000/svg" xmlns:xlink="http://www.w3.org/1999/xlink"><clipPath id="a"><path d="m0 0h18.2414v23h-18.2414z"/></clipPath><g clip-path="url(#a)" fill="#fff"><path d="m9.37988 17.4471c-1.21594-.8758-2.43188-1.7472-3.64325-2.6275-.41827-.3046-.58054-.7302-.50969-1.2297.03428-.2509.14628-.4749.33141-.6586.16685-.1657.37256-.271.57369-.383.59425-.336 1.18851-.6698 1.78277-1.0035.43655-.2442.87538-.4838 1.30965-.7302 1.33934-.7549 1.44674-2.5424.2057-3.44287-1.1428-.82655-2.28331-1.6531-3.43069-2.47293-.44569-.31807-.67653-.73247-.67196-1.27454.00228-.33823-.34284-.54207-.64226-.37855-.51197.27775-1.01937.56671-1.52906.84895-.69483.38527-1.39193.76606-2.08447 1.15358-1.33022.74591-1.439929 2.53116-.214847 3.42939 1.213657.88927 2.427307 1.77857 3.643247 2.66557.24684.1792.42741.4032.51197.6944.16685.5712-.08228 1.1737-.61025 1.4694-1.08566.6048-2.17132 1.2073-3.25927 1.8099-.239985.1344-.461688.289-.639965.4995-.777104.9072-.623969 2.2467.345126 2.9568 1.145089.84 2.294739 1.6777 3.446689 2.511.43426.3136.65825.7168.65825 1.2476 0 .4032.33598.5891.69254.3898 1.19765-.6675 2.39531-1.3373 3.59296-2.007.42969-.2397.73825-.5847.91423-1.0371.3451-.905.0457-1.8413-.77252-2.4304z"/><path d="m17.4163 14.329c-1.2183-.8938-2.4411-1.783-3.6844-2.6454-.3749-.2599-.5783-.6205-.5783-1.0573-.0023-.4928.2332-.8803.6766-1.12894.5188-.29343 1.0422-.58463 1.561-.87582.5989-.336 1.1977-.66976 1.7942-1.00575 1.3097-.73471 1.424-2.51773.2194-3.40923-.3451-.25536-.6971-.504-1.0513-.74815-.3429-.23744-.6743-.49056-1.0103-.73695-.0548-.03808-.112-.07392-.1668-.11424-.4206-.30688-.8388-.61823-1.264-.92287-.4205-.30015-.6354-.698868-.6376-1.211821-.0023-.398714-.336-.589111-.6903-.3942341-1.1954.6585511-2.3907 1.3148651-3.57924 1.9846151-1.32794.74815-1.4285 2.53116-.20114 3.42939.35656.26208.71311.52191 1.07195.78399.86623.63167 1.73473 1.2611 2.59873 1.89949.768.56895.6788 1.65534-.0823 2.10782-.448.2665-.9097.5107-1.3645.7638-.704.392-1.41249.7795-2.11417 1.1782-.36112.2061-.62168.5085-.77939.8916-.10742.1903-.1577.3987-.1737.607-.064.7773.21713 1.4112.8571 1.8793 1.13823.8378 2.28106 1.6666 3.42836 2.4953.4343.3136.6537.7213.6491 1.2522-.0022.3763.3383.5757.672.3897 1.216-.6764 2.4342-1.3462 3.641-2.0361 1.2822-.7347 1.3942-2.5065.208-3.3756z"/></g></svg>