<svg fill="none" height="18" viewBox="0 0 19 18" width="19" xmlns="http://www.w3.org/2000/svg"><path d="m14.5878 14.7885c0 .7181.0062 1.411 0 2.0975-.0062.7055-.4659 1.1969-1.0934 1.1024-.2424-.0378-.5095-.1953-.6897-.3717-.8698-.8503-1.7209-1.7259-2.5721-2.6015-.1553-.1637-.31065-.233-.54053-.233-2.06267.0126-4.11913.0063-6.1818.0063-2.09995 0-3.51027-1.4299-3.51027-3.559 0-2.56995 0-5.14624 0-7.71623 0-2.05348 1.42275-3.50854575 3.45435-3.50854575 3.88305-.006299 7.76605-.006299 11.64915 0 2.0316.00629895 3.4543 1.45506575 3.4543 3.52113575.0063 2.58259.0063 5.16518 0 7.74774 0 2.0787-1.4289 3.5149-3.4854 3.5212-.1491-.0063-.2982-.0063-.4846-.0063zm-5.31199-5.48015c-.11804-.10709-.2423-.19527-.32928-.30865-.30443-.42204-.60265-.84407-.88844-1.285-.22366-.34645-.56537-.47872-.90087-.30865-.33549.17007-.45353.53541-.28579.91335.04971.11339.10562.23307.17396.33385.32307.46613.65857.93225.99406 1.40465-.55294.252-1.1618.3465-1.78309.3717-.29822.0126-.51567.1511-.61508.4409-.15532.4598.18018.8945.70206.8945.95678-.0063 1.86386-.2394 2.70881-.6992.18017-.1008.31064-.0882.47839.0063.84496.4598 1.75206.6803 2.70886.6992.4535.0063.7331-.3087.6834-.737-.0373-.3339-.2858-.5669-.6524-.5921-.6088-.0378-1.2115-.1134-1.8017-.3969.9816-1.01411 1.5656-2.21722 1.7458-3.6219.1118-.00629.205-.01259.2982-.01889.466-.0252.7269-.27716.7207-.68659-.0062-.40314-.2796-.6551-.7455-.6614-.5095-.0063-1.0127 0-1.5222 0-.3355 0-.6772 0-1.03754 0 0-.42833 0-.81257 0-1.20311 0-.50392-.26094-.81887-.66477-.81257-.39763.0063-.64614.30865-.65235.79368-.00622.39683 0 .79367 0 1.222-.14911 0-.26094 0-.37278 0-.7269 0-1.44759 0-2.1745 0-.32928 0-.59644.10708-.72069.43463-.18639.47243.16153.91336.7269.91966 1.47867.0063 2.95733 0 4.44223 0h.3603c-.1864 1.17161-.7082 2.12276-1.59669 2.89754z" fill="#000"/></svg>