<svg fill="none" height="45" viewBox="0 0 47 45" width="47" xmlns="http://www.w3.org/2000/svg"><g fill="#0f2b41"><path d="m44.5203 30.9175c-.8264.7084-1.8181 1.2516-2.9515 1.5586-.0472 1.039-.5903 1.9836-1.4167 2.574-.0236.0236-.0472.0236-.0708.0472-.4959.3306-1.1098.5195-1.7946.5195h-25.2886l-.0709.1181c-.6611 1.1571 0 2.574 1.2279 2.881h24.6039c1.0861 0 2.0542-.2834 2.9043-.7557.0236 0 .0472-.0236.0708-.0236 2.3376-1.346 3.5891-4.2034 2.7862-6.9191z"/><path d="m46.9507 25.0807c0-.0709 0-.1417 0-.2126 0-.0708-.0001-.1417-.0236-.2125 0-.1181-.0236-.2126-.0472-.3307 0-.0708-.0236-.1417-.0236-.2125-.0236-.0709-.0236-.1417-.0472-.2126-.0236-.0708-.0236-.1653-.0471-.2362-.0236-.0944-.0472-.1889-.0708-.2834-.0236-.0708-.0472-.1653-.0708-.2361-.0235-.0709-.0471-.1181-.0707-.189-.0236-.0944-.0708-.1653-.0944-.2598-.0236-.0708-.0707-.1653-.0943-.2361-.0472-.0945-.0708-.189-.1179-.2598-.0236-.0473-.0472-.0945-.0708-.1417l-9.7648-16.98107c-1.0614-1.84216-2.9483-2.76325-4.8117-2.71601l11.7697 20.42918c1.0378 1.8186.7076 3.8733-.4481 5.2903-.1651.189-.3302.3543-.5189.5196 0 0 0 0-.0236 0-.1887.1653-.3774.307-.5897.4251-.0236.0237-.0472.0237-.0707.0473-.0708.0472-.1416.0944-.2123.1181-.0472.0236-.0944.0472-.118.0708-.0707.0236-.1179.0472-.1887.0945-.0471.0236-.0943.0472-.1415.0708-.2358.0945-.4481.1654-.7076.2126-.3302.0708-.6604.1181-1.0142.1181h-2.2879-.1179-.0708-3.2785-3.4672-13.7981l-1.651 2.8577-.0944.1653h24.0346.0708.8727c.6604 0 1.2973-.0944 1.9105-.2361 1.1322-.2835 2.1228-.8267 2.9483-1.5588.5189-.4487.9671-.9683 1.3444-1.5352.0236-.0236.0472-.0472.0472-.0708.0472-.0709.0708-.1181.1179-.1889.0472-.0945.118-.189.1652-.2835.0235-.0472.0707-.118.0943-.1653.0236-.0708.0708-.1181.0943-.1889.0236-.0473.0472-.1181.0708-.1653.0472-.1181.0943-.2126.1415-.3307.0236-.0472.0472-.0945.0708-.1653.0236-.0709.0472-.1417.0707-.2126.0236-.0472.0236-.0944.0472-.1653.0472-.1181.0708-.2362.0944-.3779.0235-.0472.0235-.0944.0471-.1653.0236-.0708.0236-.1417.0472-.2362 0-.0472.0236-.1181.0236-.1653.0236-.1181.0472-.2598.0472-.3779 0-.0472.0236-.1181.0236-.1653 0-.0708.0235-.1417.0235-.2362 0-.0708 0-.1181 0-.1889 0-.1181 0-.2362 0-.3543-.0236-.0472-.0235-.1181-.0235-.1653z"/><path d="m5.21692 32.6662c0-.0236 0-.0472 0-.0708-.04729-.6133.09457-1.2501.42556-1.8634l12.67232-21.88909-.0236-.04718c-.7566-1.2973-2.6243-1.2973-3.3809 0l-12.08127 20.87487c-.07093.1179-.11821.2122-.1655.3302-.02364.0472-.04728.0707-.04728.1179-.02365.0708-.07093.1415-.09457.2123-.02365.0472-.04729.0944-.07093.1415-.02364.0472-.04729.118-.07093.1651-.02364.0472-.04728.118-.07093.1652 0 .0235-.02364.0707-.02364.0943-.04728.1651-.09457.3066-.11821.4718v.0471c-.02364.0944-.02364.1651-.04728.2595v.0472c-.04729.3066-.07093.5896-.07093.8963v.0707c.02364 2.689 1.86775 5.1657 4.61027 5.8025-.21278-1.0614-.16549-2.1936.11822-3.3022-.87477-.5661-1.46583-1.486-1.5604-2.5238z"/><path d="m14.3029 41.6066c-.7786 0-1.51-.1887-2.1234-.519-1.0617-.5425-1.8638-1.4625-2.26489-2.5712-.23592-.6605-.33029-1.3918-.23592-2.123.02359-.2831.09437-.5662.18874-.8492.09437-.3067.23597-.6134.40107-.92l1.1325-1.9815.0471-.0944.0472-.0707 1.6515-2.8543 1.7223-2.9959 6.9126-11.9597-1.7222-2.9251-.0472-.0707-12.03229 20.8293-.04718.0707-.42467.7313c-.3303.5661-.56622 1.1795-.73137 1.7692-.30671 1.1087-.3303 2.241-.11797 3.3025.58982 3.1138 3.16142 5.7322 6.65318 6.0152h.1651.2123.2832 19.1572c2.1233-.0236 3.822-1.1794 4.7421-2.8071z"/><path d="m40.7965 24.224-12.2791-21.24002c-.5441-.9204-1.2775-1.652-2.1056-2.147599-.0237-.0236-.0473-.0236-.071-.0472-2.3422-1.3452-5.4889-.9676-7.4053 1.109199 1.041.354 2.0111.9204 2.8155 1.7464.9227-.4956 2.0583-.5192 3.0047-.0708l.0709.0236c.5205.2832.9937.6844 1.3486 1.2744l12.7049 21.94802h.0946c1.3722.0236 2.2713-1.3688 1.8218-2.596z"/><path d="m23.6146 5.96458-.0472-.07089-.4251-.73251c-.3543-.59074-.7558-1.11058-1.2045-1.58317-.8267-.8034-1.795-1.39414-2.8106-1.74858-.6377-.21266-1.299-.33081-1.9603-.37807-.1653 0-.307-.02363-.4723-.02363h-.0236c-2.4327.02363-4.8653 1.22873-6.306 3.59167l-8.95126 15.5009-.684923 1.2051c-1.062809 1.8431-.897483 3.9225.070854 5.5293l11.785329-20.41583c1.0392-1.81947 2.9995-2.55198 4.7945-2.2448.2126.04726.4251.09452.6377.16541.0236 0 .0472.02363.0708.02363h.0237c.0472.02363.0708.02363.118.04726.4488.1654.8739.4017 1.2518.70888.1889.14178.3543.28355.5196.47259.2362.25992.4487.54347.6377.85066l1.1336 1.96123.0709.11815.0472.07089 1.6297 2.83553v-.0236l.2598.4253 1.5588 2.6937 6.8492 11.8856h3.2593.0708.1181z"/></g></svg>