<?xml version="1.0" standalone="no"?>
<!DOCTYPE svg PUBLIC "-//W3C//DTD SVG 20010904//EN"
 "http://www.w3.org/TR/2001/REC-SVG-20010904/DTD/svg10.dtd">
<svg version="1.0" xmlns="http://www.w3.org/2000/svg"
 width="28.000000pt" height="28.000000pt" viewBox="0 0 28.000000 28.000000"
 preserveAspectRatio="xMidYMid meet">

<g transform="translate(0.000000,28.000000) scale(0.100000,-0.100000)"
fill="#000000" stroke="none">
<path d="M82 264 c-96 -49 -106 -174 -18 -237 66 -47 170 -17 202 59 18 43 18
68 -2 110 -33 68 -118 100 -182 68z m56 -112 c4 -28 -14 -52 -40 -52 -25 0
-33 25 -19 56 15 33 54 30 59 -4z m77 9 c0 -8 -9 -19 -20 -25 -11 -6 -24 -17
-28 -23 -4 -7 -12 -13 -18 -13 -8 0 -6 29 7 68 5 18 59 11 59 -7z"/>
<path d="M96 144 c-4 -9 -4 -19 -2 -21 8 -8 26 8 26 23 0 19 -16 18 -24 -2z"/>
</g>
</svg>
