<svg fill="none" height="25" viewBox="0 0 21 25" width="21" xmlns="http://www.w3.org/2000/svg" xmlns:xlink="http://www.w3.org/1999/xlink"><clipPath id="a"><path d="m0 0h20.5479v25h-20.5479z"/></clipPath><g clip-path="url(#a)" fill="#fff"><path d="m7.11725 0c4.44055.371491 8.37085 2.00881 11.59785 5.2284 2.372 2.36654 2.2893 5.022.6895 7.6225-.4964.8117-1.1032 1.5822-1.7651 2.2839-.9792 1.0595-1.1585 2.2015-.7309 3.5498.2206.6742.3309 1.3759.4275 2.0776.1241.9494-.2759 1.6924-1.0068 2.2703-1.1721.9356-2.5926 1.3208-3.9854 1.7886-1.4205.4816-2.44096-.0412-3.4063-.9631-2.67537-2.5041-4.55088-5.5586-6.12301-8.8057-1.37906-2.8894-2.358186-5.91636-2.7856934-9.08092-.1103246-.7705.1516964-1.73363.5792034-2.39405 1.07566-1.65108 2.55126-2.889383 4.52331-3.370946.60678-.1375893 1.26873-.1375893 1.98584-.206384zm.64816 1.541c-.27582 0-.55163-.01376-.82744 0-2.30302.13759-3.87515 1.74739-3.79241 4.01761.04138 1.10072.24824 2.24271.60679 3.27463 1.32389 3.78376 3.5028 7.08586 5.9989 10.18166.71715.8805 1.57215 1.6648 2.44095 2.4078.5516.4815 1.2411.7842 2.041.6054 1.2825-.3027 1.9307-1.3071 1.7652-2.683-.1517-1.3209-.3034-2.628-.4137-3.9488-.069-.7705.2344-1.3759.8412-1.9263.6895-.6329 1.3239-1.3484 1.8341-2.1189 1.1446-1.7336.9792-3.41219-.5102-4.84312-1.0067-.96313-2.0962-1.85746-3.2546-2.6142-2.041-1.33462-4.2337-2.32526-6.72979-2.35278z"/><path d="m6.28857 10.8558c1.64108-2.46283 3.21321-4.84313 4.86803-7.34726 1.5997 2.4491 3.1443 4.81564 4.744 7.23726-.2207.1513-.3861.2889-.5792.399-1.2412.7292-2.4823 1.4722-3.7373 2.1739-.2068.11-.5654.2064-.7446.11-1.50321-.8117-2.99259-1.6785-4.55093-2.5729z"/><path d="m10.0396 2.99948c-1.58597 2.32526-3.08914 4.49917-4.66126 6.79692-.68953-1.65108-1.25494-3.19208-.99292-4.89819.19306-1.19703.95155-1.81618 2.17891-1.88497 1.10324-.05504 2.1927-.01376 3.47527-.01376z"/><path d="m15.2661 12.782c-1.3514 1.8712-2.6891 3.7287-4.1233 5.71-1.44804-1.9675-2.84089-3.8525-4.21995-5.7375.02758-.0275.05516-.0688.06895-.0963 1.15841.6604 2.33061 1.2796 3.4614 1.9813.4689.2889.8275.3164 1.3101.0137 1.1033-.6879 2.2479-1.3208 3.3787-1.9812.0414.0412.0828.0825.1241.11z"/><path d="m13.625 4.82941c1.3928.82553 2.7167 1.71986 3.7097 2.98569.6343.81177.4964 1.62355-.4 2.3115-1.1032-1.76115-2.2065-3.53605-3.3097-5.29719z"/><path d="m14.3145 16.4144c.1655.8118.3861 1.6236.4965 2.4491.0965.6742-.2896 1.2658-.7723 1.3621-.5103.1101-1.6962-.4127-1.8617-.853-.0414-.1101 0-.2752.0551-.3715.6068-.8806 1.2412-1.7474 1.8618-2.6142.0827.0138.1516.0138.2206.0275z"/></g></svg>