<svg fill="none" height="27" viewBox="0 0 30 27" width="30" xmlns="http://www.w3.org/2000/svg" xmlns:xlink="http://www.w3.org/1999/xlink"><clipPath id="a"><path d="m0 0h29.1177v27h-29.1177z"/></clipPath><g clip-path="url(#a)" fill="#fff"><path d="m28.3799 13.4919c-.1312-.0163-.2788 0-.4099-.0163-.4427-.4546-.1968-1.0715-.3443-1.5911-.0164 0-.0328 0-.0492 0l-.0492-.4708h.0164c-.0164-.0325-.0164-.0649-.0164-.0974v-.0325c-.0164-.2435.1476-.3085.4263-.3734.705-.1786.9181-.6981.6066-1.36379-.2787-.58449-.6886-1.0878-1.2788-1.39628.0984-.53578.2459-1.07155.0328-1.60733.0328-.21107 0-.4059-.1804-.53578 0-.12989-.0655-.24354-.2131-.25977-.3607-.37343-.7378-.37343-1.0985 0-.1967.11365-.3443.24353-.3279.48707-.3279-.01624-.5082-.29225-.6558-.50331-.3771-.50331-.7541-.97414-1.3116-1.29886.0328-.35718.1476-.6819.3443-.97414.1476-.21107.1804-.37342-.0164-.56825-.2459-.24354-.4918-.12989-.623.08118-.4591.74684-.9837.50331-1.5247.14612-.0656-.04871-.1148-.11365-.1804-.14612-.6886-.37342-1.6723-.55202-1.0984-1.73722.0819-.1786-.0656-.373426-.2624-.438369-.2459-.097415-.3934.064943-.5246.243539-.2295.30848-.2131.81178-.7214.87673-.4754-.2273-.9837-.32472-1.4919-.37343-.6395-.06494-1.1149-.21106-1.0001-1.006611.0491-.292243-.1148-.5520144-.4591-.5520144-.2951 0-.4591.2110644-.4591.4708364.0328.795549-.3934 1.022849-1.1148.957909-.246-.01624-.4919.03247-.7214.11365-.6886.21106-1.2133.19483-1.3772-.681902-.0492-.259772-.2623-.422129-.5574-.34095-.2951.081178-.3771.324714-.2788.584482.2952.74685-.0491 1.0878-.7541 1.26639-.2296.06494-.4591.17859-.6558.30848-.59025.40589-1.0985.56825-1.52477-.21107-.11476-.21106-.36069-.34095-.63941-.16235-.27871.17859-.24592.43836-.09837.63319.54104.66567.22953 1.10403-.36069 1.49369-.22953.14612-.44266.34095-.59022.55201-.39348.51954-.80336.66567-1.3444.19483-.21313-.17859-.49185-.30848-.72138-.03247-.21314.25977-.13116.53578.13116.69813.70499.43837.54104.92544.11477 1.46122-.16395.21106-.29511.4546-.39349.71437-.21313.60072-.50824.99038-1.24602.64943-.24593-.11365-.57383-.11365-.68859.2273-.11477.32472.09837.53578.37708.61696.73778.21106.78697.6657.52464 1.2826-.06558.1461-.08197.3085-.09837.4546l-.11476.6819c-.0164 0-.0164 0-.03279 0 .03279.4546-.11477.6982-.63941.6819-.3279-.0162-.80336-.0487-.83615.4221-.04918.5358.45906.5196.81976.5521.42627.0487.6394.211.60661.6656-.01639.2111.04919.4222.08198.6332-.52464.2111-.88534-.3247-1.36079-.3085-.52464-.2597-1.049287-.763-1.639509-.4546-.524643.2761-.2951118.9092-.2951118 1.4126-.0163951 1.2014.1475558 2.3541.7213828 3.4419.114766.5196.409878.9255.721388 1.3314.44266.5682.77056.5844 1.22963.0162.42627-.5196.83614-1.0553 1.22963-1.6073.29511-.4222.40987-.0812.57382.0974.04919.5195.80336 1.0228-.01639 1.5424-.26232.1623-.52464.3896-.3279.7306.24592.4059.59022.1786.85254.0162.40988-.2598.73778-.276 1.03289.1461.21314.4546.59022.7631.95092 1.0878.36069.3247.49185.5845.16395 1.0066-.18035.2436-.45907.5683-.09837.8443.39348.3247.67219-.0325.86893-.2923.31151-.3734.57383-.4058.95092-.1136.22953.1786.50825.2922.77057.4384.67222.3084 1.36082.6007.88532 1.5748-.0984.2111.0656.4222.3279.4709s.4427-.1137.5083-.3248c.2131-.7793.7049-.828 1.3607-.552.246.0975.5247.1462.8034.1462.6722.0162 1.0821.2273 1.0493.9903-.0164.2436.0656.5033.3771.5196.3115.0162.4754-.1948.459-.4546-.0655-.9092.5575-.9579 1.2133-.9742.2787-.0162.5574-.0162.8033-.0974.6394-.2273 1.0329-.0487 1.2133.617.0656.2435.2131.4708.5246.4059.3279-.0812.4427-.3572.3279-.6332-.3115-.7956.1476-1.0391.787-1.2339.2623-.0812.5246-.1786.7378-.341.5574-.4059 1.0001-.4384 1.3935.2111.164.2598.4099.3734.6886.1786.2624-.1786.1968-.4384.0492-.6495-.459-.6169-.1967-1.0228.3443-1.3962.2459-.1624.4919-.3572.6558-.6008.3771-.5357.7706-.6981 1.328-.2273.2132.1786.4919.2761.7214 0 .2131-.2597.0492-.5033-.1312-.6331-.6722-.4709-.5246-.9417-.0983-1.4775.1639-.2111.3115-.4546.4098-.6981.2296-.6332.5575-.9417 1.2625-.6332.2295.0974.4918.0812.623-.2111.1311-.2922-.0164-.5033-.2787-.5682-.8198-.2436-.8362-.7631-.623-1.4288.0983-.3085.1639-.6332.1803-.9579.0164-.5358.2459-.7793.787-.7631.3279.0163.7213-.0487.7377-.4708-.0164-.4871-.4426-.4384-.7541-.5033zm-8.7386-5.79617c.1312-.6819.5082-1.16897 1.2132-1.3638 1.1641.09742 1.5084.40589 1.7215 1.52616.0656-.01624.1148-.01624.1804-.03247-.0656.01623-.1148.03247-.1804.03247-.2459 1.21768-.6886 1.52616-1.9674 1.41251-.6066-.35719-.9181-.89297-.9673-1.57487-.1148.03247-.2459.03247-.3607.06495.1148-.03248.2459-.04871.3607-.06495zm6.2957 7.12747c-.705 4.6434-3.8692 7.9718-8.509 8.9459-2.279.4708-4.4431.0487-6.5581-.7956-1.26239-.7143-2.41005-1.5911-3.42654-2.6139-.49186-.6981-1.03289-1.3638-1.40998-2.1269-.24593-.5845-.47546-1.1852-.72138-1.7697-.0164-.1299 0-.276-.04919-.4059-.29511-.7143-.06558-1.1527.63941-1.4449 1.0001-.4059 1.9838-.8768 2.9839-1.3151.91813-.2111 1.81988-.4709 2.75438-.6332 1.328-.2436 1.328-.2111 1.328 1.0391-.0328.4058-.0492.8117-.1148 1.2014-.0983.617.1804.6819.6886.5358 1.1149-.3247 2.2625-.6819 3.0495-1.4937 1.0493-1.104 2.2789-1.6398 3.7217-1.8509h.0492s2.2953-.3247 2.7871-.8118c.0164-.0162.0164-.0162.0164-.0324.5903-.1786 1.1313-.4546 1.5904-.8281.5246-.4221.7705-.3247.8689.3247.0328.2273.1148.4546.1639.6819l-.0164.0163.1312.6494c.0328.7469.0656 1.5099.0984 2.2568-.0164.1461-.0492.3085-.0656.4708z"/><path d="m8.13193 15.6837c-.52465 0-.86894.3572-.86894.893-.0164.5845.34429.9579.90173.9579.54103 0 .90173-.341.91812-.9417-.04918-.6007-.40988-.9254-.95091-.9092z"/><path d="m16.3459 20.5219c-.5575 0-.9182.3735-.9182.9417 0 .5358.3443.8767.869.9092.5738.0325.8853-.3247.9673-.8929-.0492-.5683-.3443-.958-.9181-.958z"/><path d="m21.5759 15.8948c-.5575 0-.9346.3084-.9182.9092.0164.552.3279.828.8526.8605.623-.0163.9509-.3248.9509-.9093-.0164-.5195-.3279-.8767-.8853-.8604z"/><path d="m10.083 18.525c-.3443.0324-.52465.2597-.52465.6007 0 .3734.24593.6007.62305.5682.377-.0162.5574-.276.5738-.6332-.0492-.4058-.3115-.5682-.6722-.5357z"/><path d="m19.7397 19.5965c-.3443 0-.5574.2111-.5738.552 0 .3247.1803.5683.5246.6007.3771.0325.5903-.1948.6722-.6007-.0655-.2922-.2459-.552-.623-.552z"/><path d="m12.657 20.5544c-.3607.0325-.5902.276-.5575.6495.0328.3247.2624.552.6067.5357.3607-.0162.5738-.2435.6066-.6169-.082-.3247-.2623-.6007-.6558-.5683z"/><path d="m17.8542 16.252c-.3279.0324-.5247.276-.5083.6169.0328.3247.2296.5683.5738.552.3607-.0162.5739-.2435.6067-.6819-.082-.2922-.2951-.5357-.6722-.487z"/><path d="m15.9524 18.801c-.0328-.3572-.2132-.5683-.5739-.5683-.377 0-.6394.2273-.6394.6007 0 .341.2296.5521.5739.5683.4098.0162.6066-.2273.6394-.6007z"/><path d="m13.0833 16.9663c-.0164-.3247-.2459-.5195-.6722-.5195-.2459.0649-.5246.211-.5246.552.0164.3572.2295.6007.623.5845.4263 0 .5902-.2598.5738-.617z"/><path d="m21.3464 8.55621c.4263.03248.6066-.25977.6558-.71437-.0656-.32471-.2131-.66566-.6722-.6819-.3935 0-.5902.25977-.6066.61696-.0328.42213.1803.74684.623.77931z"/></g></svg>