<svg fill="none" height="19" viewBox="0 0 19 19" width="19" xmlns="http://www.w3.org/2000/svg" xmlns:xlink="http://www.w3.org/1999/xlink"><clipPath id="a"><path d="m0 0h19v19h-19z"/></clipPath><g clip-path="url(#a)" fill="#fff"><path d="m1.15965 4.90419c.01982-.01989.02973-.04974.02973-.07958.19823-.23874.36672-.50733.48566-.79581l.00991-.00995c.26761-.26859.49557-.56701.69379-.88534.03965-.02984.06938-.06963.10903-.09948.02973-.03979.06938-.06963.09911-.10942.02973-.02984.06938-.06963.09911-.09948.03965-.02984.06938-.06963.10903-.09947l-.00991.00995c.02973-.0398.06938-.06964.09911-.10943.03965-.02984.06938-.06963.10902-.09948l-.00991.00995c.03965-.03979.06938-.06963.10903-.10942.02973-.02984.05947-.05969.0892-.07958.29734-.15917.53521-.39791.7929-.61676.03965-.02984.0793-.04974.11894-.07958l-.00991.00995c.03964-.02984.07929-.05969.11894-.07958h.00991c.11893-.07958.22796-.15916.34689-.23874.11894-.0398.24779-.06964.31717-.18901.02973 0 .04955-.00995.06937-.02984.03965-.0199.06938-.04974.10903-.06964.36672-.169107.73344-.328269 1.10016-.497379l-.00992.009948c.33699.009947.62442-.139267.90193-.308377.02974 0 .05947 0 .08921-.019895.13875 0 .28742.049738.39645-.079582.06938-.009947.12885-.019895.19823-.03979.84246-.1392672 1.69483-.11937196 2.53734-.0795814 1.3677.0696334 2.6463.5371724 3.8852 1.1041864.1487.09948.3172.17906.4262.30838.0793.08953.2775.189.1586.34817-.1586.21884-.3172.44764-.5253.6267-.4758.3979-.9119.8356-1.2786 1.34293-1.4867 1.30314-2.8148 2.76545-4.14293 4.20785-.02974.03979-.06938.06964-.09912.10943-.02973.02984-.06938.06963-.09911.09947-.02973.02985-.05947.06964-.09911.09948-.02974.03979-.06938.06963-.09912.10943-.03964.02984-.06938.06963-.10902.09947-.02974.02984-.06938.06964-.09911.09948-.02974.02984-.05947.06963-.08921.09947-.16849.09948-.28742.23875-.39645.39791-.02973.02984-.06938.06963-.09911.09948-.02974.02984-.05947.06963-.09912.10942-.02973.02984-.06937.06963-.09911.09948-.02973.02984-.06938.05968-.09911.09947-.02974.03979-.05947.06964-.09912.10943-.02973.02984-.06937.05968-.09911.08953-.02973.02984-.06938.06963-.09911.09947-.02974.03979-.05947.06964-.0892.10943-.03965.02984-.06938.06963-.10903.09944l.00991-.00991c-.03964.02981-.06938.06961-.10902.09951-.02974.0298-.05947.0596-.0892.0994l-.00991.01c-.02974.0298-.05947.0597-.08921.0895l-.00991.01c-.09911.0994-.19822.1989-.29734.2984-.02973.0298-.06938.0696-.09911.0995-.19823-.01-.28743.1492-.39645.2586-.53521.567-1.07043 1.144-1.60564 1.711-.59468.6367-1.19927 1.2634-1.80386 1.8901-.1784.1591-.3568.3282-.53521.4874-.12885-.1592-.25769-.3283-.39645-.4874-.04956-.0796-.0892-.1692-.13876-.2487-.02973-.0498-.05947-.0896-.0892-.1393-.227961-.4974-.44601-1.0047-.673971-1.5021l-.009911-.0099c-.029734-.2089-.069379-.4178-.188315-.6069.009911-.0298 0-.0596-.019823-.0795-.138758-.8854-.2973395-1.7608-.2775168-2.67595.0396453-.79581.2081378-1.53194.3171618-2.29791.257695-.66649.5253-1.32303.782995-1.98952.05947-.0199.0892-.04974.07929-.10943zm2.67606-.00995c-.02974.03979-.05947.06964-.08921.10943-.03964.05968-.0892.11937-.12884.189-.01983.02985-.04956.06964-.06938.09948-.02974.03979-.04956.06963-.07929.10942-.02974.00995-.03965.02985-.02974.04974-.13875.14922-.25769.31833-.30725.51728l.02974.02984-.03965-.02984c-.24778.32827-.39645.69634-.49556 1.08429l-.00992.00995c-.51538 1.36283-.53521 2.74555-.20813 4.25757.18831-.2188.32707-.378.46583-.5272.02973-.0298.05947-.0597.0892-.0895.03965-.0398.06938-.0697.10902-.1095l-.00991.01c.03965-.0398.06938-.0696.10903-.1094l-.00991.0099c.02973-.0398.06938-.0696.09911-.1094.03965-.0398.06938-.0696.10902-.1094l-.00991.0099c.21805-.179.42619-.36805.59468-.60679l-.00991.00995c.03965-.03979.06938-.06964.10903-.10943.12884-.06963.22796-.16911.29734-.29843.03964-.02984.06937-.06963.10902-.09947.02973-.03979.05947-.06964.09911-.10943.03965-.02984.06938-.06963.10903-.09947l-.00991.00994c.02973-.03979.06938-.06963.09911-.10942v.00995c.02973-.03979.06938-.06964.09911-.10943.29734-.22879.55504-.50733.79291-.79581.09911-.09947.19822-.19895.29734-.29843.02973-.02984.05947-.06963.0892-.09947.03964-.03979.06938-.06964.10902-.10943.1685-.08953.27752-.24869.39646-.3979.3568-.30838.69379-.63665.98122-.99477.03964-.02984.06938-.06963.10902-.09948.02974-.02984.06938-.05968.09912-.08952.47574-.44765.95148-.89529 1.37767-1.40262.03964-.02984.07929-.06964.10902-.09948.02974-.02984.05947-.05968.08921-.08953l.00991-.00994c.62441-.63665 1.25873-1.2733 1.95253-1.96964-1.50652-.23874-2.85446-.27853-4.17267.25864l-.00991.00995c-.39645.08953-.76317.24869-1.09025.47749-.14867.03979-.27751.09947-.36671.21884-.06938.03979-.12885.07958-.19823.11937-.03965.02985-.06938.05969-.10903.07959-.05946.03979-.12884.07958-.18831.12932-.02973.02984-.06938.04973-.09911.07958-.03965.02984-.06938.05968-.10903.08953-.03964.02984-.07929.06963-.10902.09947-.02974.0199-.05947.03979-.09912.05969-.10902.09947-.20813.2089-.31716.30837-.02973.0398-.06938.06964-.09911.10943l.00991-.00995c-.03965.03979-.0892.07958-.12885.11937-.03964 0-.04955.0199-.04955.05969-.04956.04974-.08921.08953-.13876.13927-.01983.02984-.03965.05968-.05947.08952-.03965.04974-.06938.08953-.09911.12932z"/><path d="m10.3973 11.0817c.0298-.0299.0595-.0697.0991-.0995.0298-.0298.0595-.0696.0991-.0995.0298-.0298.0694-.0597.0992-.0994.0594-.0697.1288-.1393.1883-.199.0297-.0298.0694-.0597.0991-.0995.0297-.0298.0694-.0597.0991-.0995.0297-.0397.0595-.0696.0991-.1094.1289-.0696.228-.1691.2974-.29841.0297-.02984.0693-.05968.0991-.08953.0297-.02984.0693-.05968.0991-.09947.0297-.03979.0694-.06964.0991-.10943.0396-.02984.0694-.06963.109-.09947.0298-.02985.0595-.05969.0991-.08953.0298-.02984.0595-.06963.0991-.10943.1983-.12931.3569-.30837.4956-.49738.0297-.02984.0694-.06963.0991-.09947.0397-.02985.0694-.06964.109-.09948.0992-.09948.1983-.19895.2974-.29843.0297-.02984.0694-.06963.0991-.09948v-.00994c.0991-.09948.1982-.19896.2973-.29843.0298-.03979.0694-.06964.0992-.10943.0297-.02984.0693-.05968.0991-.09947.2279-.2288.4559-.46754.6938-.69634.0991-.09948.1883-.19895.2874-.29843v-.00995c.1784-.10942.3171-.26858.4361-.43769l.0099-.00995c.1883-.19895.3865-.39791.5749-.59686.0297-.03979.0693-.07958.0991-.10942l-.0099.00994c.0396-.03979.0693-.07958.109-.11937l-.0099.00995c.0396-.03979.0793-.06963.109-.10942l-.0099.00994c.0694-.06963.1288-.13926.1982-.19895.0297-.02984.0694-.06963.0991-.09947.0298-.0398.0694-.06964.0991-.10943.0397-.02984.0694-.06963.1091-.09948l-.01.00995c.0397-.02984.0694-.06963.1091-.09947.8523-.76597.8523-.76597 1.3876.29843.0099.00994.0198.02984.0198.03979.0594.43769.6343.85549.0495 1.31308-.4361.4576-.8821.92514-1.3182 1.38273-.0297.02984-.0495.05968-.0793.08953-.0396.03979-.0793.06963-.1189.10942l.0099-.00995c-.0396.03979-.0694.07958-.109.11937-.1586.10943-.2874.2288-.3866.39791-.0396.02984-.0693.06963-.109.09948l.0099-.00995c-.0396.03979-.0693.06963-.109.10942l.0099-.00994c-.0396.03979-.0694.06963-.109.10942l.0099-.00995c-.0396.03979-.0694.06964-.109.10943l.0099-.00995c-.0396.03979-.0793.06963-.1189.10942-.0298.02984-.0595.06964-.0892.09948-.0397.02984-.0694.06963-.1091.09947l.0099-.00994c-.0396.03979-.0693.06963-.109.10942-.0594.06963-.1288.12932-.1883.19895-.0297.02985-.0694.06964-.0991.09948s-.0694.05969-.0991.09948c-.0298.03979-.0694.06963-.0991.10942l.0099-.00995c-.0397.03979-.0694.06964-.109.10943-.0298.02984-.0694.0597-.0992.0895-.0297.0299-.0594.0697-.0892.0995l-.0099.01c-.0297.0298-.0694.0596-.0991.0895-.0297.0298-.0694.0696-.0991.0995-.0297.0397-.0595.0696-.0991.1094-.0297.0298-.0694.0597-.0991.0995-.0397.0298-.0694.0696-.1091.0994-.0297.0398-.0693.0697-.0991.1095-.0297.0298-.0693.0696-.0991.0994-.1982.1294-.3667.2985-.4955.4974-.0397.0299-.0694.0696-.1091.0995-.0297.0298-.0594.0597-.0991.0895-.0297.0398-.0694.0697-.0991.1094-.4658.398-.892.8356-1.2885 1.2932-.0396.0299-.0693.0697-.109.0995-.1387-.0099-.2081.0597-.1982.2089-.892.6665-1.60565 1.5121-2.30935 2.3676l.00991-.01c-.03965.0398-.06938.0696-.10903.1094l.00991-.0099c-.02973.0398-.06938.0796-.09911.1194l.00991-.01c-.03964.0398-.07929.0696-.10902.1094l.00991-.0099c-.03965.0398-.06938.0696-.10903.1094l.00991-.0099c-.03964.0398-.06937.0696-.10902.1094l.00991-.01c-.03964.0398-.06938.0697-.10902.1095l.00991-.01c-.03965.0398-.0892.0796-.12885.1293-.02973 0-.03964.0199-.03964.0498-.03965.0398-.08921.0796-.12885.1293-.02974.0398-.06938.0696-.09911.1094-.02974.0299-.05947.0696-.09912.0995-.03964.0298-.06938.0696-.10902.0995l.00991-.01c-.03965.0398-.06938.0697-.10903.1094-.02973.0299-.05946.0697-.0892.0995-.09911.0299-.16849.0995-.20813.199-.02974.0398-.05947.0696-.09912.1094-.02973.0298-.06938.0597-.09911.0895-.03965.0398-.06938.0796-.10903.1095l.00992-.01c-.02974.0298-.05947.0696-.08921.0995-.09911.0398-.16849.0995-.20813.1989-.06938.0697-.13876.1294-.19823.199l.00991-.01c-.02973.0398-.06938.0697-.09911.1095-.02974.0398-.05947.0696-.09912.1094-.03964.0298-.06937.0597-.10902.0995l.00991-.01c-.20814.2587-.44601-.0497-.66406.0299-.06938-.0398-.13876-.0796-.20813-.1194.00991-.0796-.03965-.0895-.09912-.0796-.01982-.0199-.04955-.0298-.0892-.0298-.20814-.1194-.41628-.2388-.62441-.3681-.48566-.2885-.49557-.378-.09912-.7759.41628-.4178.83255-.8456 1.24883-1.2733h.00991c.73344-.4576 1.1398-1.2335 1.77413-1.7906l.00991-.0099c.02973-.0398.05947-.0796.0892-.1095.11894-.0795.22796-.1691.28743-.3083.30725-.2189.56494-.4974.78299-.7959l-.00991.01c.03965-.0398.06938-.0696.10903-.1094.02973-.0299.05946-.0597.0892-.0796.03964-.0398.06938-.0796.10902-.1194l-.00991.01c.03965-.0398.06938-.0697.10903-.1095.09911-.0994.19822-.2089.29734-.3083l-.00992.0099c.03965-.0398.06938-.0696.10903-.1094l-.00991.0099c.11893-.0795.22796-.1691.29734-.2984.20809-.1989.37659-.3681.53519-.5272z"/><path d="m18.5244 12.6534c-.0199.0199-.0298.0497-.0298.0796-.109.0696-.0892.1989-.1189.2984l.0099-.0099c-.0198.0398-.0396.0796-.0595.1293-.0198.0099-.0297.0298-.0198.0597-.0991.2089-.1982.4178-.2973.6366-.0694.1293-.1388.2587-.2082.388-.0297.0597-.0693.1194-.0991.179-.0793.0896-.1883.1791-.1883.3184l-.0099.0099c-.109.0696-.1586.1691-.1982.2885-.1289.1094-.2379.2288-.2775.3979l-.0199.0199c-.0297.0298-.0594.0597-.0892.0895-.4658.4676-.9217.9252-1.3876 1.3927h-.0099c-.0297.0298-.0594.0597-.0892.0895l-.0099.01c-.4361.1989-.783.5272-1.1893.7858-1.12.5869-2.3094.9749-3.5483 1.1838-.0991 0-.228.01-.0991-.1393.1685-.189.3469-.368.5253-.557.1487-.0995.2775-.2189.3667-.3681l.0099-.0099c.5451-.5372 1.0903-1.0843 1.6354-1.6215l.0099-.01c.1289-.1293.2478-.2685.3766-.3979.0298-.0298.0694-.0696.0991-.0994.0992-.0995.1983-.199.2875-.2985.0297-.0298.0694-.0696.0991-.0994.0297-.0398.0595-.0796.0991-.1095l-.0099.01c.0297-.0398.0694-.0697.0991-.1094v.0099c.0397-.0398.0694-.0696.109-.1094l-.0099.0099c.0397-.0398.0694-.0696.109-.1094l-.0099.01c.0397-.0398.0694-.0697.1091-.1095l-.01.01c.0298-.0398.0694-.0697.0992-.1094l-.01.0099c.0397-.0298.0694-.0696.1091-.0995l-.0099.01c.0297-.0398.0693-.0796.0991-.1095l-.0099.01c.0396-.0398.0693-.0696.109-.1094l-.0099.0099c.0396-.0398.0694-.0696.109-.1094l-.0099.0099c.0297-.0398.0694-.0696.0991-.1094.0297-.0298.0694-.0696.0991-.0995.0297-.0298.0694-.0596.0991-.0994.0298-.0398.0694-.0697.0991-.1095.0397-.0398.0694-.0696.1091-.1094.0594-.0597.1288-.1293.1883-.189.0297-.0398.0694-.0696.0991-.1094.0297-.0299.0694-.0597.0991-.0995.0297-.0298.0595-.0696.0991-.0995l.0099-.0099c.0298-.0299.0595-.0696.0991-.0995.0298-.0298.0694-.0696.0992-.0995.0297-.0298.0594-.0696.0991-.0994.0297-.0299.0594-.0697.0991-.0995.0396-.0299.0694-.0597.109-.0995.0297-.0298.0595-.0696.0991-.0995.0298-.0298.0595-.0597.0892-.0895 0 0 .0198-.0199.0198-.0099.0298-.0299.0595-.0597.0992-.0896.0297-.0298.0594-.0696.0991-.0995.0297-.0298.0694-.0696.0991-.0994.0694-.0697.1288-.1294.1982-.199.0297-.0298.0595-.0696.0991-.0995l.0099-.0099c.0298-.0299.0694-.0597.0991-.0895.0298-.0299.0595-.0697.0992-.0995.0297-.0299.0693-.0696.0991-.0995.109-.0895.3171-.0796.2973-.2984h-.0099c.0396-.0299.0793-.0697.109-.0995.0298-.0298.0595-.0597.0892-.0995.0298-.0398.0694-.0696.0991-.1094.0397-.0298.0694-.0597.1091-.0895.0297-.0299.0594-.0697.0892-.0995.2676-.0995.3171-.5173.6839-.4775-.0793.4178-.1586.8257-.2379 1.2435l.0099-.01c-.1189.2786-.2081.5869-.2874.8953z"/></g></svg>