<svg width="21" height="28" viewBox="0 0 21 28" fill="none" xmlns="http://www.w3.org/2000/svg">
<g clip-path="url(#clip0_3684_1332)">
<path d="M19.5648 7.70484C18.7105 6.8735 17.6785 6.31641 16.5704 5.9136C16.0375 5.71648 15.8937 5.46793 16.0798 4.99655C16.4604 4.01094 16.6212 2.9739 16.9003 1.96257C16.951 1.77402 16.9172 1.68832 16.7142 1.63689C16.139 1.49119 15.5638 1.35406 15.0055 1.15694C14.6926 1.04552 14.5657 1.06267 14.4811 1.41406C14.2358 2.49395 13.9397 3.56527 13.686 4.65373C13.6268 4.92799 13.4914 5.06511 13.263 4.9537C12.8316 4.75657 12.3664 4.64516 11.9181 4.49946C11.8081 4.46518 11.7066 4.42232 11.7489 4.25948C11.8504 3.82238 11.9012 3.351 12.045 2.93962C12.2903 2.23683 12.4172 1.5169 12.6371 0.814119C12.6878 0.651278 12.654 0.531291 12.4425 0.479867C11.8504 0.342739 11.2668 0.179898 10.6831 0.0170575C10.404 -0.0600775 10.2602 -8.36141e-05 10.1841 0.334168C9.96414 1.34549 9.69346 2.35682 9.44815 3.35957C9.30436 3.94237 9.30436 3.94237 8.74608 3.79667C7.46881 3.47956 6.19155 3.15388 4.90582 2.81106C4.60977 2.73392 4.44905 2.75963 4.37292 3.1196C4.24604 3.76239 4.07687 4.39661 3.89077 5.02226C3.81465 5.26224 3.89077 5.31366 4.09378 5.35651C4.66898 5.50221 5.23571 5.65648 5.8109 5.81075C6.42839 5.97359 6.84287 6.77922 6.64832 7.36202C6.47914 7.88483 6.40301 8.44191 6.21692 8.95615C6.11542 9.23897 6.19155 9.40181 6.36918 9.56465C6.84287 10.0275 7.41806 10.3189 7.99325 10.6188C8.53461 10.9017 9.1521 10.9445 9.70192 11.1845C10.0403 11.3302 10.0656 11.2102 10.1333 10.9531C10.3786 9.9589 10.6408 8.96472 10.8861 7.96196C11.0299 7.37916 11.0299 7.38773 11.6136 7.49915C12.5779 7.6877 13.4999 7.99624 14.3965 8.40763C15.8514 9.07613 16.5027 10.2332 15.826 11.7587C17.2133 12.0501 18.5751 12.4101 19.7847 13.2071C19.9962 13.3443 20.1061 13.2071 20.1823 13.0529C20.3261 12.7443 20.4699 12.4358 20.5629 12.1101C21.0451 10.4731 20.8505 8.94758 19.5648 7.70484Z" fill="white"/>
<path d="M15.8853 19.5666C15.5385 19.4037 15.1324 19.1209 14.9464 19.7808C14.9294 19.8237 14.8618 19.858 14.8279 19.9008C14.2612 20.6036 13.4745 20.7493 12.6456 20.8007C11.0892 20.895 9.62582 20.4579 8.14554 20.0808C7.90024 20.0208 7.9087 19.8922 7.95945 19.7037C8.06941 19.3094 8.14554 18.8981 8.30626 18.5209C8.41622 18.2467 8.34009 18.1781 8.10325 18.1181C6.85136 17.8096 5.64176 17.3982 4.57596 16.6354C4.39833 16.5069 4.30528 16.5583 4.26299 16.7811C4.19532 17.1325 4.11073 17.4753 4.02614 17.8267C3.84005 18.5638 3.48478 18.8038 2.76579 18.6495C2.32594 18.5552 1.88609 18.4524 1.45469 18.3238C1.15864 18.2381 0.98946 18.2981 0.904873 18.6152C0.735699 19.2752 0.405808 19.8751 0.135129 20.5007C-0.0932563 21.0493 -0.0932563 21.0407 0.465019 21.1778C1.75075 21.4949 3.02801 21.8292 4.31374 22.1463C4.66901 22.232 4.75359 22.3691 4.64363 22.7548C4.33066 23.8176 4.07689 24.906 3.80622 25.9773C3.75546 26.1573 3.69625 26.3544 3.98385 26.4059C4.53367 26.4916 5.06657 26.663 5.59101 26.8344C5.9209 26.9458 6.11545 26.8601 6.19158 26.5087C6.41996 25.4802 6.76677 24.4775 6.91057 23.4233C6.96132 23.0633 7.15587 22.9434 7.51114 23.0376C7.9087 23.1405 8.2978 23.2605 8.69536 23.3462C8.94912 23.3976 9.00833 23.4919 8.94066 23.749C8.64461 24.8803 8.37393 26.0116 8.06941 27.1344C8.01866 27.3315 8.06941 27.3915 8.23013 27.4343C8.88145 27.6057 9.54123 27.7771 10.1926 27.9571C10.3871 28.0086 10.4209 27.9486 10.4632 27.7686C10.7593 26.603 11.0807 25.446 11.3599 24.2718C11.4275 23.9975 11.529 23.9633 11.7574 24.0147C12.6202 24.2289 13.4999 24.3575 14.3965 24.3318C15.014 24.3404 15.6231 24.3146 16.2321 24.1689C17.3656 23.8947 18.3552 23.389 19.0319 22.3777C19.1334 22.232 19.1334 22.1463 19.0235 22.0092C18.1691 20.9721 17.1202 20.1494 15.8853 19.5666Z" fill="white"/>
<path d="M17.9068 14.9728C16.6718 14.3557 15.2676 14.2443 13.8889 14.1414C12.9415 14.0729 11.9941 14.0986 11.0467 13.9786C9.76102 13.8243 8.50913 13.5415 7.34182 12.9673C6.77509 12.6845 6.19144 12.3931 5.87846 11.776C5.82771 11.6731 5.81079 11.536 5.66699 11.5446C5.49782 11.5617 5.51474 11.7246 5.4809 11.8445C5.30327 12.5559 5.18485 13.293 4.948 13.9872C4.78729 14.45 4.99876 14.6128 5.32865 14.7928C6.96118 15.6927 8.74597 16.0698 10.5646 16.1984C12.6285 16.3527 14.6586 16.5926 16.5449 17.5182C17.9321 18.1953 19.2348 19.001 19.8438 20.6465C19.9284 20.5437 19.9792 20.5094 19.9961 20.4579C20.0722 20.1837 20.1568 19.9094 20.2075 19.6352C20.6305 17.424 19.7254 15.8813 17.9068 14.9728Z" fill="white"/>
</g>
<defs>
<clipPath id="clip0_3684_1332">
<rect width="20.8" height="28" fill="white"/>
</clipPath>
</defs>
</svg>
