<svg fill="none" height="25" viewBox="0 0 25 25" width="25" xmlns="http://www.w3.org/2000/svg" xmlns:xlink="http://www.w3.org/1999/xlink"><clipPath id="a"><path d="m0 0h25v25h-25z"/></clipPath><g clip-path="url(#a)" fill="#fff"><path d="m23.8194 15.1175c-.0327.0139-.0653.0139-.0933-.014-.0327-.0047-.0607-.0094-.0934-.014-.1726-.0187-.3453-.042-.518-.0606-.0327-.0047-.07-.0047-.1027-.0093-.042.0233-.084.0139-.126-.0094-.0793-.0046-.154-.0046-.2333-.0093-.1727 0-.3453 0-.518 0-.154.0047-.308.0047-.462.0093-.168.0467-.3407.0467-.5134.0467-.1493.0512-.308.0559-.462.0606-.168.0512-.3407.0792-.5133.0885-.2707.0653-.5414.1305-.8121.1958-.028.0466-.056.0886-.126.0699l-.0233.0047-.0187-.0093c-.154.0373-.3126.0746-.4666.1165-.1587.056-.3127.1119-.4714.1725-.3407.1212-.672.289-1.022.3822-.056.042-.112.0886-.1913.0886-.5881.2983-1.1807.592-1.7688.8904-.3266.1911-.6533.3776-.9753.5687-.462.331-.9427.6293-1.4467.8857-.3174.1864-.6347.3776-.9801.5081-.308.1958-.644.3263-.9846.4568-.3127.1678-.6487.2751-.9754.4056-.16801.0792-.34068.1492-.51802.1911-.06067.0187-.12134.0373-.18667.0559-.38268.2145-.81202.2937-1.2227.4196-.112.0419-.22401.0932-.34068.1212-.224.0466-.364.1771-.43401.3916-.00466.2051.10734.3589.24734.4941.16334.1631.32668.3263.49002.4941.16333.1632.32667.3263.49001.4848.16334.1632.32667.3263.49001.4941.16334.1632.32668.3264.49468.4895.16334.1585.33134.3217.49468.4801.30334.2424.63464.4476.98004.6294.154.0559.308.1165.462.1724.8354.2145 1.6614.2005 2.4781-.0839.154-.0652.308-.1352.462-.2004.154-.0932.3033-.1911.4573-.2844.7607-.6619 1.4374-1.4124 2.1607-2.1117.3967-.3822.7841-.7738 1.1714-1.17.6487-.6666 1.2554-1.3892 1.9507-2.0045.6907-.6107 1.3254-1.2773 1.9834-1.9159.6394-.6153 1.2647-1.2493 1.8994-1.874-.0233-.0652-.0747-.0699-.112-.0978z"/><path d="m24.8087 10.3534c-.0607-.1539-.126-.3077-.1867-.4662-.014-.00466-.0186-.01864-.014-.03263-.1073-.15849-.2146-.32164-.3173-.48014-.2193-.20511-.4387-.41022-.6534-.61533-.3173-.20511-.6533-.36826-.9847-.54074-.3266-.10255-.658-.20977-.9846-.31232-.1681-.0373-.3407-.07925-.5087-.11654-.1587 0-.3174-.02797-.4667-.07459-.028-.00466-.0607-.00466-.0887-.00932-.0326.01865-.0653.01398-.0933-.00932-.112.00466-.2193.00932-.3267-.03263-.1587-.00467-.3127-.01399-.4713-.01865-.1727 0-.3407 0-.5134 0-.1586.00466-.3127.00932-.4713.01398-.1634.05128-.336.04196-.5087.05128-.154.04662-.3127.06526-.4714.06992-.1353.02331-.2706.04662-.406.06993-.364.08857-.7233.17714-1.0873.27037-.154.04661-.308.09323-.4667.13985-.3267.1212-.6534.2424-.98.3636-.1634.07925-.3314.15849-.5087.20045-.3174.17714-.6487.32164-.98.46149-.294.15849-.5881.31233-.8774.47082-.518.30762-1.0314.62002-1.5494.92762-.3173.2191-.6347.4382-.97999.606-.01867.0327-.04667.0513-.08401.0513-.13067.1026-.266.1865-.42001.2471-.14933.1025-.30334.1911-.47134.261-.32201.1632-.60669.3963-.96603.4848-.17267.0886-.29867.2751-.52268.2518-.14934.0839-.30801.1491-.47135.1957-.07933.0327-.15867.0606-.23333.0933-.40602.1864-.82603.3216-1.26004.4242-.056.0373-.12133.0513-.18667.0466-.40601.1538-.83536.2098-1.26003.2704-.04667.0046-.09334.0093-.14001.0093l-.014.014-.014-.0094c-.112.042-.224.0467-.34067.0373-.15401.0373-.31268.0513-.47135.028-.168.028-.33601.0326-.50401-.0093-.15867.0373-.31734-.0093-.47135-.028-.17267-.0046-.34534-.0326-.51335-.0792-.336-.0653-.672014-.1259-.980022-.2797-.172671-.0373-.326675-.1119-.476013-.2098-.1960049 0-.0513344.1492-.0980023.2144.0326675.1725.0700018.3403.1026693.5128.102669.3217.200672.648.303341.9696l.210006.4755c.303342.5361.630021 1.0488 1.129361 1.4264.13534.1026.27534.1958.41535.2937.28467.1259.56935.2378.87269.3123.17267.0094.34534.0233.51334.07.15401 0 .31268-.0094.46202.0326.15867-.0233.31734-.0233.47601 0 .168-.042.34067-.0373.50868-.0326.14934-.0513.30801-.0513.46668-.0513.112-.0513.23334-.0513.35467-.056.01867-.0046.04201-.0093.06067-.0139.03267-.0047.06534-.0094.09334-.0187.32667-.0792.65335-.1585.98002-.2377.14934-.0699.30801-.1072.46668-.1399.31735-.1445.64869-.2564.98003-.3682.168-.0746.33601-.1445.50868-.2191.32668-.1539.65335-.3077.98003-.4569.30799-.1678.62069-.3356.92869-.5034.0373-.0513.0887-.0793.1493-.0839.0934-.0839.21-.1352.322-.1865.3407-.2098.6814-.4195 1.0221-.6293.4433-.3077.896-.592 1.358-.8624.0187-.0513.0607-.028.098-.0373.0047-.0279.014-.0513.0467-.0373.3173-.1911.6393-.3682.98-.5127.0747-.0513.1447-.1073.238-.1073.3874-.2097.7794-.3962 1.2087-.5174.6207-.3123 1.288-.4848 1.9601-.634.1633-.0652.336-.0979.5133-.1072.1493-.0559.3034-.0979.4667-.0886.1633-.0699.336-.0559.504-.0839.1587-.0139.3173-.0279.476-.0419.168-.028.3407-.028.5087-.014.154-.0233.3127-.0233.4667.0047.1726-.0094.3406-.0187.5087.0279.154.0327.322-.0186.4713.056.1773-.0094.3453.0419.5133.0979.1681-.0094.3174.0466.4714.0979.3407.0559.6627.1724.9754.3216.308.0746.5693.2564.8913.3543.0373-.6899.0233-1.3332-.168-1.9625z"/><path d="m1.09196 10.0177h.46201c.16801-.0466.34534-.03728.51802-.03728.014 0 .03266-.00466.04666-.00466.02334-.01865.05134-.02797.07934-.00466.112-.04196.22401-.04196.34068-.03729.32667-.0606.65335-.12587.98002-.18647.16801-.06526.33601-.11187.51335-.13984.14934-.06993.30334-.11654.46668-.13985.13067-.06992.27534-.11188.42001-.14451.51335-.21443 1.02669-.43353 1.54471-.64796.15867-.10721.32667-.19112.50868-.25172.48534-.27504.96602-.55007 1.45137-.8251.014-.05128.06067-.03729.09333-.04662.28934-.19578.56935-.40089.89136-.54074l.00467-.01398c0-.02331 0-.04196.03266-.02797.27535-.2424.61599-.37293.93799-.53142.4807-.2797.9754-.51744 1.4887-.72254.1494-.08391.3081-.14451.4714-.19113.3173-.14451.6393-.27037.9753-.35428.1634-.08857.3314-.14451.5134-.17714.0233-.00466.0467-.01398.0653-.01864.448-.17248.9054-.31233 1.3814-.4009.1213-.05594.2473-.07925.378-.09323.3687-.11188.7374-.20977 1.12-.26105.1167-.03729.2334-.07458.3594-.06992.1073-.04662.2147-.09323.322-.13985.042-.07925.0887-.15383.1307-.23308 0-.04195.0046-.08391.0046-.13052-.0093-.04662-.0233-.0979-.0326-.14451-.5881-.59202-1.1761-1.18404-1.7641-1.7714-.294-.29368-.588-.59668-.9053-.86705-.4434-.377587-.9754-.592019-1.5261-.759835h-.0233l-.0187-.0093236c-.1587-.0279694-.3127-.0512773-.4713-.0792467-.168-.00466156-.3407-.00932313-.5087-.0139847-.154.0139847-.3127.032631-.4667.0466157-.336.0559393-.6533.1864633-.98.2843553-.3407.186463-.6767.391572-.98004.638636-.042.037293-.084.074583-.126.111873-.11667.13519-.23801.26571-.38268.37759-.028.02797-.06067.0606-.08867.08857-.10733.14451-.238.26571-.37801.37759-.028.0606-.07467.10255-.13534.13518-.112.13985-.238.26571-.37801.37759-.028.02797-.06066.0606-.08866.08857-.11201.13985-.23334.27037-.37801.37759-.04667.04661-.08867.08857-.13534.13518-.10734.14451-.23801.26571-.37801.37759-.028.02797-.06067.0606-.08867.08857-.112.13985-.23801.26571-.37801.37759-.03267.0606-.07934.10255-.13534.13518-.10733.14451-.23334.27037-.37801.37759-.028.02797-.06067.0606-.08867.08857-.112.13985-.238.26571-.37801.37759-.028.0606-.07467.10721-.13533.13518-.11201.13985-.23334.27037-.37801.37759-.028.02797-.06067.0606-.08867.08857-.10734.14451-.23801.26571-.37801.37759-.028.0606-.07467.10721-.13534.13518-.112.13985-.23334.27037-.37801.37759-.028.02797-.06067.0606-.08867.08857-.112.13985-.23334.27037-.37801.38225-.03267.0606-.07467.10255-.13067.13518-.112.13985-.238.26571-.38268.37759-.028.02797-.056.05594-.08866.08857-.11201.13985-.23801.27037-.37801.38225-.04667.04662-.08867.08857-.13534.13519-.112.13984-.23801.26571-.37801.37758-.028.02797-.056.05594-.08867.08857-.112.13985-.23801.26571-.37801.37759-.03267.05594-.07467.10255-.13534.13519-.112.13984-.238.27037-.37801.37758-.028.02797-.056.0606-.084.08857-.112.13985-.23801.26571-.37801.37759-.028.0606-.07467.10255-.135336.13518-.093336.16313.102666.05128.121336.11653z"/></g></svg>