<svg fill="none" height="18" viewBox="0 0 18 18" width="18" xmlns="http://www.w3.org/2000/svg" xmlns:xlink="http://www.w3.org/1999/xlink"><clipPath id="a"><path d="m0 0h17.6v18h-17.6z"/></clipPath><g clip-path="url(#a)"><path d="m0 12.7461c0-4.28237 0-8.50258 0-12.7461h17.4531v1.92746c-5.1401 0-10.29561 0-15.47436 0v3.32643h15.62896v12.74611c-5.7971 0-11.6019 0-17.437652 0 0-.6295 0-1.2668 0-1.943h15.474352c0-1.1192 0-2.1995 0-3.3109-5.2096 0-10.40382 0-15.6444 0zm1.97102-2.044h13.68118c0-1.14252 0-2.26169 0-3.40417-4.5681 0-9.11307 0-13.68118 0z" fill="#fff"/></g></svg>