<svg fill="none" height="16" viewBox="0 0 18 16" width="18" xmlns="http://www.w3.org/2000/svg" xmlns:xlink="http://www.w3.org/1999/xlink"><clipPath id="a"><path d="m0 0h17.7778v16h-17.7778z"/></clipPath><g clip-path="url(#a)"><path d="m16.4005 3.51972c-.1604-.04557-.3347-.07011-.53-.06661-.38.00701-.76 0-1.1435 0-1.1332 0-2.2628 0-3.3959 0-2.06403 0-4.12457 0-6.18859 0-.12203 0-.24754 0-.36957 0-.39049 0-.70776-.31902-.70776-.71166 0-.39263.31727-.71165.70776-.71165h10.89886c-.0802-.37511-.244-.71516-.4811-1.01665-.394-.501318-.9414-.802808-1.555-.9500472-.7287-.1752848-1.4783.0525852-2.2035.1787902-2.23137.382121-4.46275.767747-6.69761 1.149867-.82282.14023-1.64912.27695-2.47543.41367-1.46434.2419-2.2278883 1.36723-2.2383479 2.59422-.0313787 2.99036-.02440566 5.98075-.02789218 8.97455 0 1.2866.77749408 2.2752 2.00475008 2.5627.19176.0456.39049.0596.58574.0596 4.20126.0035 8.40249.0035 12.60379.0035.6624 0 1.3493-.2805 1.8548-.7011.6311-.5259.7322-1.1149.7287-1.8931 0-2.2366-.0035-4.46978 0-6.70641 0-.15776 0-.31201 0-.46977 0-.19281 0-.38913 0-.58194 0-.42419-.0941-.80281-.3068-1.1674-.2755-.48729-.5997-.82734-1.0634-.96056zm-2.981 7.79668c-.9379.0245-1.7188-.7327-1.7467-1.69677-.0279-.91498.7426-1.71779 1.6805-1.74583.9274-.02805 1.7153.7397 1.7467 1.70376.0244.92204-.7391 1.71424-1.6805 1.73884z" fill="#000"/></g></svg>